<ttFont>
<head>
    <!-- Most of this table will be recalculated by the compiler -->
    <tableVersion value="1.0"/>
    <fontRevision value="0.84999"/>
    <checkSumAdjustment value="0x7af571be"/>
    <magicNumber value="0x5f0f3cf5"/>
    <flags value="00000000 00000111"/>
    <unitsPerEm value="1000"/>
    <created value="Sat Nov 28 12:14:13 2020"/>
    <modified value="Wed Sep  1 18:33:30 2021"/>
    <xMin value="-146"/>
    <yMin value="-216"/>
    <xMax value="721"/>
    <yMax value="1024"/>
    <macStyle value="00000000 00000000"/>
    <lowestRecPPEM value="7"/>
    <fontDirectionHint value="2"/>
    <indexToLocFormat value="0"/>
    <glyphDataFormat value="0"/>
  </head>
    <TTGlyph name=".notdef" xMin="98" yMin="-200" xMax="431" yMax="850">
      <contour>
        <pt x="431" y="-200" on="1"/>
        <pt x="98" y="-200" on="1"/>
        <pt x="98" y="850" on="1"/>
        <pt x="431" y="850" on="1"/>
      </contour>
      <contour>
        <pt x="350" y="-128" on="1"/>
        <pt x="350" y="-93" on="1"/>
        <pt x="243" y="-93" on="1"/>
        <pt x="316" y="-44" on="1"/>
        <pt x="350" y="-44" on="1"/>
        <pt x="350" y="-9" on="1"/>
        <pt x="175" y="-9" on="1"/>
        <pt x="175" y="-44" on="1"/>
        <pt x="249" y="-44" on="1"/>
        <pt x="175" y="-93" on="1"/>
        <pt x="175" y="-128" on="1"/>
      </contour>
      <contour>
        <pt x="350" y="15" on="1"/>
        <pt x="350" y="134" on="1"/>
        <pt x="175" y="134" on="1"/>
        <pt x="175" y="15" on="1"/>
      </contour>
      <contour>
        <pt x="350" y="197" on="1"/>
        <pt x="350" y="316" on="1"/>
        <pt x="245" y="316" on="1"/>
        <pt x="245" y="257" on="1"/>
        <pt x="280" y="257" on="1"/>
        <pt x="280" y="281" on="1"/>
        <pt x="315" y="281" on="1"/>
        <pt x="315" y="232" on="1"/>
        <pt x="210" y="232" on="1"/>
        <pt x="210" y="316" on="1"/>
        <pt x="175" y="316" on="1"/>
        <pt x="175" y="197" on="1"/>
      </contour>
      <contour>
        <pt x="350" y="339" on="1"/>
        <pt x="350" y="444" on="1"/>
        <pt x="315" y="444" on="1"/>
        <pt x="315" y="374" on="1"/>
        <pt x="175" y="374" on="1"/>
        <pt x="175" y="339" on="1"/>
      </contour>
      <contour>
        <pt x="280" y="399" on="1"/>
        <pt x="280" y="472" on="1"/>
        <pt x="350" y="472" on="1"/>
        <pt x="350" y="507" on="1"/>
        <pt x="175" y="507" on="1"/>
        <pt x="175" y="472" on="1"/>
        <pt x="245" y="472" on="1"/>
        <pt x="245" y="433" on="1"/>
        <pt x="175" y="433" on="1"/>
        <pt x="175" y="399" on="1"/>
      </contour>
      <contour>
        <pt x="350" y="535" on="1"/>
        <pt x="350" y="571" on="1"/>
        <pt x="280" y="571" on="1"/>
        <pt x="280" y="644" on="1"/>
        <pt x="175" y="644" on="1"/>
        <pt x="175" y="535" on="1"/>
      </contour>
      <contour>
        <pt x="350" y="672" on="1"/>
        <pt x="350" y="706" on="1"/>
        <pt x="280" y="706" on="1"/>
        <pt x="280" y="745" on="1"/>
        <pt x="350" y="745" on="1"/>
        <pt x="350" y="780" on="1"/>
        <pt x="176" y="780" on="1"/>
        <pt x="176" y="745" on="1"/>
        <pt x="245" y="745" on="1"/>
        <pt x="245" y="706" on="1"/>
        <pt x="175" y="706" on="1"/>
        <pt x="175" y="672" on="1"/>
      </contour>
      <contour>
        <pt x="210" y="99" on="1"/>
        <pt x="315" y="99" on="1"/>
        <pt x="315" y="50" on="1"/>
        <pt x="210" y="50" on="1"/>
      </contour>
      <contour>
        <pt x="210" y="609" on="1"/>
        <pt x="245" y="609" on="1"/>
        <pt x="245" y="571" on="1"/>
        <pt x="210" y="571" on="1"/>
      </contour>
    </TTGlyph>
    <TTGlyph name="A" xMin="63" yMin="0" xMax="687" yMax="800">
      <contour>
        <pt x="502" y="282" on="1"/>
        <pt x="242" y="282" on="1"/>
        <pt x="163" y="0" on="1"/>
        <pt x="63" y="0" on="1"/>
        <pt x="291" y="800" on="1"/>
        <pt x="459" y="800" on="1"/>
        <pt x="687" y="0" on="1"/>
        <pt x="581" y="0" on="1"/>
      </contour>
      <contour>
        <pt x="476" y="376" on="1"/>
        <pt x="372" y="744" on="1"/>
        <pt x="269" y="376" on="1"/>
      </contour>
    </TTGlyph>
    <TTGlyph name="B" xMin="126" yMin="0" xMax="670" yMax="800">
      <contour>
        <pt x="525" y="800" on="0"/>
        <pt x="670" y="685" on="0"/>
        <pt x="670" y="584" on="1"/>
        <pt x="670" y="512" on="0"/>
        <pt x="592" y="425" on="0"/>
        <pt x="518" y="415" on="1"/>
        <pt x="518" y="387" on="1"/>
        <pt x="588" y="378" on="0"/>
        <pt x="664" y="290" on="0"/>
        <pt x="664" y="217" on="1"/>
        <pt x="664" y="115" on="0"/>
        <pt x="520" y="0" on="0"/>
        <pt x="390" y="0" on="1"/>
        <pt x="126" y="0" on="1"/>
        <pt x="126" y="800" on="1"/>
        <pt x="396" y="800" on="1"/>
      </contour>
      <contour>
        <pt x="390" y="96" on="1"/>
        <pt x="475" y="96" on="0"/>
        <pt x="566" y="163" on="0"/>
        <pt x="566" y="225" on="1"/>
        <pt x="566" y="288" on="0"/>
        <pt x="475" y="355" on="0"/>
        <pt x="390" y="355" on="1"/>
        <pt x="226" y="355" on="1"/>
        <pt x="226" y="96" on="1"/>
      </contour>
      <contour>
        <pt x="396" y="448" on="1"/>
        <pt x="482" y="448" on="0"/>
        <pt x="572" y="514" on="0"/>
        <pt x="572" y="576" on="1"/>
        <pt x="572" y="638" on="0"/>
        <pt x="482" y="704" on="0"/>
        <pt x="396" y="704" on="1"/>
        <pt x="226" y="704" on="1"/>
        <pt x="226" y="448" on="1"/>
      </contour>
    </TTGlyph>
    <TTGlyph name="C" xMin="89" yMin="-15" xMax="687" yMax="815">
      <contour>
        <pt x="243" y="-15" on="0"/>
        <pt x="89" y="196" on="0"/>
        <pt x="89" y="400" on="1"/>
        <pt x="89" y="604" on="0"/>
        <pt x="248" y="815" on="0"/>
        <pt x="400" y="815" on="1"/>
        <pt x="523" y="815" on="0"/>
        <pt x="672" y="663" on="0"/>
        <pt x="687" y="521" on="1"/>
        <pt x="590" y="521" on="1"/>
        <pt x="576" y="622" on="0"/>
        <pt x="482" y="720" on="0"/>
        <pt x="400" y="720" on="1"/>
        <pt x="293" y="720" on="0"/>
        <pt x="189" y="562" on="0"/>
        <pt x="189" y="400" on="1"/>
        <pt x="189" y="238" on="0"/>
        <pt x="288" y="80" on="0"/>
        <pt x="390" y="80" on="1"/>
        <pt x="470" y="80" on="0"/>
        <pt x="561" y="171" on="0"/>
        <pt x="575" y="264" on="1"/>
        <pt x="673" y="264" on="1"/>
        <pt x="656" y="128" on="0"/>
        <pt x="511" y="-15" on="0"/>
        <pt x="390" y="-15" on="1"/>
      </contour>
    </TTGlyph>
    <TTGlyph name="D" xMin="106" yMin="0" xMax="666" yMax="800">
      <contour>
        <pt x="106" y="800" on="1"/>
        <pt x="320" y="800" on="1"/>
        <pt x="490" y="800" on="0"/>
        <pt x="666" y="597" on="0"/>
        <pt x="666" y="400" on="1"/>
        <pt x="666" y="203" on="0"/>
        <pt x="490" y="0" on="0"/>
        <pt x="320" y="0" on="1"/>
        <pt x="106" y="0" on="1"/>
      </contour>
      <contour>
        <pt x="320" y="96" on="1"/>
        <pt x="441" y="96" on="0"/>
        <pt x="566" y="251" on="0"/>
        <pt x="566" y="400" on="1"/>
        <pt x="566" y="549" on="0"/>
        <pt x="441" y="704" on="0"/>
        <pt x="320" y="704" on="1"/>
        <pt x="206" y="704" on="1"/>
        <pt x="206" y="96" on="1"/>
      </contour>
    </TTGlyph>
    <TTGlyph name="E" xMin="148" yMin="0" xMax="646" yMax="800">
      <contour>
        <pt x="148" y="800" on="1"/>
        <pt x="646" y="800" on="1"/>
        <pt x="646" y="704" on="1"/>
        <pt x="248" y="704" on="1"/>
        <pt x="248" y="449" on="1"/>
        <pt x="586" y="449" on="1"/>
        <pt x="586" y="357" on="1"/>
        <pt x="248" y="357" on="1"/>
        <pt x="248" y="96" on="1"/>
        <pt x="626" y="96" on="1"/>
        <pt x="626" y="0" on="1"/>
        <pt x="148" y="0" on="1"/>
      </contour>
    </TTGlyph>
    <TTGlyph name="Euro" xMin="40" yMin="-15" xMax="691" yMax="815">
      <contour>
        <pt x="302" y="-15" on="0"/>
        <pt x="162" y="136" on="0"/>
        <pt x="143" y="284" on="1"/>
        <pt x="40" y="284" on="1"/>
        <pt x="40" y="365" on="1"/>
        <pt x="137" y="365" on="1"/>
        <pt x="136" y="376" on="0"/>
        <pt x="136" y="400" on="1"/>
        <pt x="136" y="437" on="0"/>
        <pt x="137" y="455" on="1"/>
        <pt x="40" y="455" on="1"/>
        <pt x="40" y="536" on="1"/>
        <pt x="146" y="536" on="1"/>
        <pt x="168" y="674" on="0"/>
        <pt x="307" y="815" on="0"/>
        <pt x="422" y="815" on="1"/>
        <pt x="539" y="815" on="0"/>
        <pt x="678" y="671" on="0"/>
        <pt x="691" y="536" on="1"/>
        <pt x="595" y="536" on="1"/>
        <pt x="583" y="629" on="0"/>
        <pt x="498" y="720" on="0"/>
        <pt x="422" y="720" on="1"/>
        <pt x="350" y="720" on="0"/>
        <pt x="263" y="629" on="0"/>
        <pt x="246" y="536" on="1"/>
        <pt x="498" y="536" on="1"/>
        <pt x="498" y="455" on="1"/>
        <pt x="237" y="455" on="1"/>
        <pt x="236" y="438" on="0"/>
        <pt x="236" y="400" on="1"/>
        <pt x="237" y="365" on="1"/>
        <pt x="498" y="365" on="1"/>
        <pt x="498" y="284" on="1"/>
        <pt x="243" y="284" on="1"/>
        <pt x="271" y="80" on="0"/>
        <pt x="420" y="80" on="1"/>
        <pt x="551" y="80" on="0"/>
        <pt x="575" y="244" on="1"/>
        <pt x="672" y="244" on="1"/>
        <pt x="657" y="119" on="0"/>
        <pt x="527" y="-15" on="0"/>
        <pt x="420" y="-15" on="1"/>
      </contour>
    </TTGlyph>
    <TTGlyph name="F" xMin="170" yMin="0" xMax="668" yMax="800">
      <contour>
        <pt x="170" y="800" on="1"/>
        <pt x="668" y="800" on="1"/>
        <pt x="668" y="704" on="1"/>
        <pt x="270" y="704" on="1"/>
        <pt x="270" y="439" on="1"/>
        <pt x="618" y="439" on="1"/>
        <pt x="618" y="343" on="1"/>
        <pt x="270" y="343" on="1"/>
        <pt x="270" y="0" on="1"/>
        <pt x="170" y="0" on="1"/>
      </contour>
    </TTGlyph>
    <TTGlyph name="G" xMin="80" yMin="-15" xMax="677" yMax="815">
      <contour>
        <pt x="231" y="-15" on="0"/>
        <pt x="80" y="197" on="0"/>
        <pt x="80" y="400" on="1"/>
        <pt x="80" y="603" on="0"/>
        <pt x="242" y="815" on="0"/>
        <pt x="395" y="815" on="1"/>
        <pt x="516" y="815" on="0"/>
        <pt x="661" y="673" on="0"/>
        <pt x="677" y="541" on="1"/>
        <pt x="579" y="541" on="1"/>
        <pt x="566" y="631" on="0"/>
        <pt x="475" y="720" on="0"/>
        <pt x="395" y="720" on="1"/>
        <pt x="286" y="720" on="0"/>
        <pt x="180" y="562" on="0"/>
        <pt x="180" y="400" on="1"/>
        <pt x="180" y="77" on="0"/>
        <pt x="387" y="77" on="1"/>
        <pt x="468" y="77" on="0"/>
        <pt x="558" y="186" on="0"/>
        <pt x="569" y="298" on="1"/>
        <pt x="363" y="298" on="1"/>
        <pt x="363" y="394" on="1"/>
        <pt x="655" y="394" on="1"/>
        <pt x="655" y="0" on="1"/>
        <pt x="567" y="0" on="1"/>
        <pt x="567" y="102" on="1"/>
        <pt x="539" y="102" on="1"/>
        <pt x="499" y="-15" on="0"/>
        <pt x="365" y="-15" on="1"/>
      </contour>
    </TTGlyph>
    <TTGlyph name="H" xMin="106" yMin="0" xMax="644" yMax="800">
      <contour>
        <pt x="206" y="800" on="1"/>
        <pt x="206" y="450" on="1"/>
        <pt x="544" y="450" on="1"/>
        <pt x="544" y="800" on="1"/>
        <pt x="644" y="800" on="1"/>
        <pt x="644" y="0" on="1"/>
        <pt x="544" y="0" on="1"/>
        <pt x="544" y="356" on="1"/>
        <pt x="206" y="356" on="1"/>
        <pt x="206" y="0" on="1"/>
        <pt x="106" y="0" on="1"/>
        <pt x="106" y="800" on="1"/>
      </contour>
    </TTGlyph>
    <TTGlyph name="I" xMin="126" yMin="0" xMax="624" yMax="800">
      <contour>
        <pt x="126" y="96" on="1"/>
        <pt x="325" y="96" on="1"/>
        <pt x="325" y="704" on="1"/>
        <pt x="126" y="704" on="1"/>
        <pt x="126" y="800" on="1"/>
        <pt x="624" y="800" on="1"/>
        <pt x="624" y="704" on="1"/>
        <pt x="425" y="704" on="1"/>
        <pt x="425" y="96" on="1"/>
        <pt x="624" y="96" on="1"/>
        <pt x="624" y="0" on="1"/>
        <pt x="126" y="0" on="1"/>
      </contour>
    </TTGlyph>
    <TTGlyph name="J" xMin="108" yMin="-15" xMax="612" yMax="800">
      <contour>
        <pt x="243" y="-15" on="0"/>
        <pt x="108" y="123" on="0"/>
        <pt x="108" y="244" on="1"/>
        <pt x="108" y="350" on="1"/>
        <pt x="206" y="350" on="1"/>
        <pt x="206" y="244" on="1"/>
        <pt x="206" y="166" on="0"/>
        <pt x="286" y="81" on="0"/>
        <pt x="359" y="81" on="1"/>
        <pt x="432" y="81" on="0"/>
        <pt x="512" y="166" on="0"/>
        <pt x="512" y="244" on="1"/>
        <pt x="512" y="704" on="1"/>
        <pt x="162" y="704" on="1"/>
        <pt x="162" y="800" on="1"/>
        <pt x="612" y="800" on="1"/>
        <pt x="612" y="244" on="1"/>
        <pt x="612" y="123" on="0"/>
        <pt x="477" y="-15" on="0"/>
        <pt x="359" y="-15" on="1"/>
      </contour>
    </TTGlyph>
    <TTGlyph name="K" xMin="148" yMin="0" xMax="717" yMax="800">
      <contour>
        <pt x="248" y="800" on="1"/>
        <pt x="248" y="422" on="1"/>
        <pt x="590" y="800" on="1"/>
        <pt x="717" y="800" on="1"/>
        <pt x="341" y="390" on="1"/>
        <pt x="700" y="0" on="1"/>
        <pt x="568" y="0" on="1"/>
        <pt x="248" y="352" on="1"/>
        <pt x="248" y="0" on="1"/>
        <pt x="148" y="0" on="1"/>
        <pt x="148" y="800" on="1"/>
      </contour>
    </TTGlyph>
    <TTGlyph name="L" xMin="189" yMin="0" xMax="669" yMax="800">
      <contour>
        <pt x="189" y="800" on="1"/>
        <pt x="288" y="800" on="1"/>
        <pt x="288" y="96" on="1"/>
        <pt x="669" y="96" on="1"/>
        <pt x="669" y="0" on="1"/>
        <pt x="189" y="0" on="1"/>
      </contour>
    </TTGlyph>
    <TTGlyph name="M" xMin="84" yMin="0" xMax="666" yMax="800">
      <contour>
        <pt x="84" y="800" on="1"/>
        <pt x="252" y="800" on="1"/>
        <pt x="373" y="326" on="1"/>
        <pt x="382" y="326" on="1"/>
        <pt x="503" y="800" on="1"/>
        <pt x="666" y="800" on="1"/>
        <pt x="666" y="0" on="1"/>
        <pt x="570" y="0" on="1"/>
        <pt x="570" y="554" on="1"/>
        <pt x="576" y="730" on="1"/>
        <pt x="567" y="730" on="1"/>
        <pt x="447" y="274" on="1"/>
        <pt x="303" y="274" on="1"/>
        <pt x="183" y="730" on="1"/>
        <pt x="174" y="730" on="1"/>
        <pt x="180" y="554" on="1"/>
        <pt x="180" y="0" on="1"/>
        <pt x="84" y="0" on="1"/>
      </contour>
    </TTGlyph>
    <TTGlyph name="N" xMin="106" yMin="0" xMax="644" yMax="800">
      <contour>
        <pt x="106" y="800" on="1"/>
        <pt x="286" y="800" on="1"/>
        <pt x="540" y="62" on="1"/>
        <pt x="549" y="62" on="1"/>
        <pt x="544" y="225" on="1"/>
        <pt x="544" y="800" on="1"/>
        <pt x="644" y="800" on="1"/>
        <pt x="644" y="0" on="1"/>
        <pt x="464" y="0" on="1"/>
        <pt x="210" y="738" on="1"/>
        <pt x="201" y="738" on="1"/>
        <pt x="206" y="575" on="1"/>
        <pt x="206" y="0" on="1"/>
        <pt x="106" y="0" on="1"/>
      </contour>
    </TTGlyph>
    <TTGlyph name="O" xMin="66" yMin="-15" xMax="684" yMax="815">
      <contour>
        <pt x="222" y="-15" on="0"/>
        <pt x="66" y="195" on="0"/>
        <pt x="66" y="400" on="1"/>
        <pt x="66" y="605" on="0"/>
        <pt x="222" y="815" on="0"/>
        <pt x="375" y="815" on="1"/>
        <pt x="528" y="815" on="0"/>
        <pt x="684" y="605" on="0"/>
        <pt x="684" y="400" on="1"/>
        <pt x="684" y="195" on="0"/>
        <pt x="528" y="-15" on="0"/>
        <pt x="375" y="-15" on="1"/>
      </contour>
      <contour>
        <pt x="166" y="237" on="0"/>
        <pt x="269" y="79" on="0"/>
        <pt x="375" y="79" on="1"/>
        <pt x="481" y="79" on="0"/>
        <pt x="584" y="237" on="0"/>
        <pt x="584" y="400" on="1"/>
        <pt x="584" y="563" on="0"/>
        <pt x="481" y="721" on="0"/>
        <pt x="375" y="721" on="1"/>
        <pt x="269" y="721" on="0"/>
        <pt x="166" y="563" on="0"/>
        <pt x="166" y="400" on="1"/>
      </contour>
    </TTGlyph>
    <TTGlyph name="P" xMin="146" yMin="0" xMax="698" yMax="800">
      <contour>
        <pt x="146" y="800" on="1"/>
        <pt x="446" y="800" on="1"/>
        <pt x="564" y="800" on="0"/>
        <pt x="698" y="676" on="0"/>
        <pt x="698" y="567" on="1"/>
        <pt x="698" y="459" on="0"/>
        <pt x="564" y="336" on="0"/>
        <pt x="446" y="336" on="1"/>
        <pt x="246" y="336" on="1"/>
        <pt x="246" y="0" on="1"/>
        <pt x="146" y="0" on="1"/>
      </contour>
      <contour>
        <pt x="450" y="428" on="1"/>
        <pt x="520" y="428" on="0"/>
        <pt x="598" y="501" on="0"/>
        <pt x="598" y="566" on="1"/>
        <pt x="598" y="631" on="0"/>
        <pt x="520" y="704" on="0"/>
        <pt x="450" y="704" on="1"/>
        <pt x="246" y="704" on="1"/>
        <pt x="246" y="428" on="1"/>
      </contour>
    </TTGlyph>
    <TTGlyph name="Q" xMin="66" yMin="-215" xMax="684" yMax="815">
      <contour>
        <pt x="481" y="79" on="0"/>
        <pt x="584" y="237" on="0"/>
        <pt x="584" y="400" on="1"/>
        <pt x="584" y="563" on="0"/>
        <pt x="481" y="721" on="0"/>
        <pt x="375" y="721" on="1"/>
        <pt x="269" y="721" on="0"/>
        <pt x="166" y="563" on="0"/>
        <pt x="166" y="400" on="1"/>
        <pt x="166" y="237" on="0"/>
        <pt x="269" y="79" on="0"/>
        <pt x="375" y="79" on="1"/>
      </contour>
      <contour>
        <pt x="66" y="605" on="0"/>
        <pt x="222" y="815" on="0"/>
        <pt x="375" y="815" on="1"/>
        <pt x="528" y="815" on="0"/>
        <pt x="684" y="605" on="0"/>
        <pt x="684" y="400" on="1"/>
        <pt x="684" y="203" on="0"/>
        <pt x="541" y="-6" on="0"/>
        <pt x="400" y="-14" on="1"/>
        <pt x="648" y="-120" on="1"/>
        <pt x="648" y="-215" on="1"/>
        <pt x="357" y="-91" on="1"/>
        <pt x="357" y="-15" on="1"/>
        <pt x="213" y="-8" on="0"/>
        <pt x="66" y="201" on="0"/>
        <pt x="66" y="400" on="1"/>
      </contour>
    </TTGlyph>
    <TTGlyph name="R" xMin="129" yMin="0" xMax="699" yMax="800">
      <contour>
        <pt x="129" y="800" on="1"/>
        <pt x="428" y="800" on="1"/>
        <pt x="545" y="800" on="0"/>
        <pt x="681" y="677" on="0"/>
        <pt x="681" y="571" on="1"/>
        <pt x="681" y="477" on="0"/>
        <pt x="567" y="360" on="0"/>
        <pt x="467" y="350" on="1"/>
        <pt x="699" y="0" on="1"/>
        <pt x="580" y="0" on="1"/>
        <pt x="357" y="348" on="1"/>
        <pt x="229" y="348" on="1"/>
        <pt x="229" y="0" on="1"/>
        <pt x="129" y="0" on="1"/>
      </contour>
      <contour>
        <pt x="430" y="437" on="1"/>
        <pt x="502" y="437" on="0"/>
        <pt x="582" y="507" on="0"/>
        <pt x="582" y="571" on="1"/>
        <pt x="582" y="634" on="0"/>
        <pt x="502" y="704" on="0"/>
        <pt x="430" y="704" on="1"/>
        <pt x="229" y="704" on="1"/>
        <pt x="229" y="437" on="1"/>
      </contour>
    </TTGlyph>
    <TTGlyph name="S" xMin="95" yMin="-15" xMax="679" yMax="815">
      <contour>
        <pt x="215" y="81" on="0"/>
        <pt x="384" y="81" on="1"/>
        <pt x="464" y="81" on="0"/>
        <pt x="556" y="156" on="0"/>
        <pt x="556" y="221" on="1"/>
        <pt x="556" y="276" on="0"/>
        <pt x="493" y="335" on="0"/>
        <pt x="426" y="342" on="1"/>
        <pt x="324" y="354" on="1"/>
        <pt x="212" y="368" on="0"/>
        <pt x="104" y="477" on="0"/>
        <pt x="104" y="577" on="1"/>
        <pt x="104" y="648" on="0"/>
        <pt x="174" y="756" on="0"/>
        <pt x="302" y="815" on="0"/>
        <pt x="386" y="815" on="1"/>
        <pt x="516" y="815" on="0"/>
        <pt x="668" y="691" on="0"/>
        <pt x="679" y="576" on="1"/>
        <pt x="578" y="576" on="1"/>
        <pt x="570" y="647" on="0"/>
        <pt x="473" y="719" on="0"/>
        <pt x="386" y="719" on="1"/>
        <pt x="301" y="719" on="0"/>
        <pt x="204" y="643" on="0"/>
        <pt x="204" y="577" on="1"/>
        <pt x="204" y="522" on="0"/>
        <pt x="267" y="463" on="0"/>
        <pt x="334" y="456" on="1"/>
        <pt x="436" y="444" on="1"/>
        <pt x="548" y="431" on="0"/>
        <pt x="656" y="322" on="0"/>
        <pt x="656" y="221" on="1"/>
        <pt x="656" y="150" on="0"/>
        <pt x="589" y="43" on="0"/>
        <pt x="465" y="-15" on="0"/>
        <pt x="384" y="-15" on="1"/>
        <pt x="257" y="-15" on="0"/>
        <pt x="108" y="98" on="0"/>
        <pt x="95" y="204" on="1"/>
        <pt x="197" y="204" on="1"/>
      </contour>
    </TTGlyph>
    <TTGlyph name="T" xMin="86" yMin="0" xMax="664" yMax="800">
      <contour>
        <pt x="325" y="704" on="1"/>
        <pt x="86" y="704" on="1"/>
        <pt x="86" y="800" on="1"/>
        <pt x="664" y="800" on="1"/>
        <pt x="664" y="704" on="1"/>
        <pt x="425" y="704" on="1"/>
        <pt x="425" y="0" on="1"/>
        <pt x="325" y="0" on="1"/>
      </contour>
    </TTGlyph>
    <TTGlyph name="U" xMin="96" yMin="-15" xMax="654" yMax="800">
      <contour>
        <pt x="196" y="800" on="1"/>
        <pt x="196" y="274" on="1"/>
        <pt x="196" y="182" on="0"/>
        <pt x="289" y="81" on="0"/>
        <pt x="375" y="81" on="1"/>
        <pt x="461" y="81" on="0"/>
        <pt x="554" y="182" on="0"/>
        <pt x="554" y="274" on="1"/>
        <pt x="554" y="800" on="1"/>
        <pt x="654" y="800" on="1"/>
        <pt x="654" y="274" on="1"/>
        <pt x="654" y="185" on="0"/>
        <pt x="587" y="54" on="0"/>
        <pt x="461" y="-15" on="0"/>
        <pt x="375" y="-15" on="1"/>
        <pt x="289" y="-15" on="0"/>
        <pt x="163" y="54" on="0"/>
        <pt x="96" y="185" on="0"/>
        <pt x="96" y="274" on="1"/>
        <pt x="96" y="800" on="1"/>
      </contour>
    </TTGlyph>
    <TTGlyph name="V" xMin="63" yMin="0" xMax="687" yMax="800">
      <contour>
        <pt x="378" y="56" on="1"/>
        <pt x="587" y="800" on="1"/>
        <pt x="687" y="800" on="1"/>
        <pt x="459" y="0" on="1"/>
        <pt x="291" y="0" on="1"/>
        <pt x="63" y="800" on="1"/>
        <pt x="169" y="800" on="1"/>
      </contour>
    </TTGlyph>
    <TTGlyph name="W" xMin="29" yMin="0" xMax="721" yMax="800">
      <contour>
        <pt x="228" y="112" on="1"/>
        <pt x="309" y="598" on="1"/>
        <pt x="448" y="598" on="1"/>
        <pt x="527" y="110" on="1"/>
        <pt x="618" y="800" on="1"/>
        <pt x="721" y="800" on="1"/>
        <pt x="602" y="0" on="1"/>
        <pt x="460" y="0" on="1"/>
        <pt x="377" y="504" on="1"/>
        <pt x="292" y="0" on="1"/>
        <pt x="148" y="0" on="1"/>
        <pt x="29" y="800" on="1"/>
        <pt x="137" y="800" on="1"/>
      </contour>
    </TTGlyph>
    <TTGlyph name="X" xMin="61" yMin="0" xMax="689" yMax="800">
      <contour>
        <pt x="376" y="435" on="1"/>
        <pt x="576" y="800" on="1"/>
        <pt x="689" y="800" on="1"/>
        <pt x="458" y="386" on="1"/>
        <pt x="673" y="0" on="1"/>
        <pt x="554" y="0" on="1"/>
        <pt x="375" y="337" on="1"/>
        <pt x="192" y="0" on="1"/>
        <pt x="77" y="0" on="1"/>
        <pt x="293" y="386" on="1"/>
        <pt x="61" y="800" on="1"/>
        <pt x="179" y="800" on="1"/>
      </contour>
    </TTGlyph>
    <TTGlyph name="Y" xMin="51" yMin="0" xMax="699" yMax="800">
      <contour>
        <pt x="376" y="446" on="1"/>
        <pt x="586" y="800" on="1"/>
        <pt x="699" y="800" on="1"/>
        <pt x="425" y="350" on="1"/>
        <pt x="425" y="0" on="1"/>
        <pt x="325" y="0" on="1"/>
        <pt x="325" y="350" on="1"/>
        <pt x="51" y="800" on="1"/>
        <pt x="166" y="800" on="1"/>
      </contour>
    </TTGlyph>
    <TTGlyph name="Z" xMin="114" yMin="0" xMax="636" yMax="800">
      <contour>
        <pt x="114" y="171" on="1"/>
        <pt x="579" y="704" on="1"/>
        <pt x="114" y="704" on="1"/>
        <pt x="114" y="800" on="1"/>
        <pt x="636" y="800" on="1"/>
        <pt x="636" y="629" on="1"/>
        <pt x="171" y="96" on="1"/>
        <pt x="636" y="96" on="1"/>
        <pt x="636" y="0" on="1"/>
        <pt x="114" y="0" on="1"/>
      </contour>
    </TTGlyph>
    <TTGlyph name="_part.multiply" xMin="125" yMin="100" xMax="625" yMax="600">
      <contour>
        <pt x="125" y="542" on="1"/>
        <pt x="183" y="600" on="1"/>
        <pt x="625" y="158" on="1"/>
        <pt x="567" y="100" on="1"/>
      </contour>
    </TTGlyph>
    <TTGlyph name="a" xMin="77" yMin="-15" xMax="611" yMax="613">
      <contour>
        <pt x="88" y="493" on="0"/>
        <pt x="240" y="613" on="0"/>
        <pt x="359" y="613" on="1"/>
        <pt x="479" y="613" on="0"/>
        <pt x="611" y="501" on="0"/>
        <pt x="611" y="399" on="1"/>
        <pt x="611" y="0" on="1"/>
        <pt x="515" y="0" on="1"/>
        <pt x="515" y="76" on="1"/>
        <pt x="487" y="76" on="1"/>
        <pt x="467" y="33" on="0"/>
        <pt x="374" y="-15" on="0"/>
        <pt x="309" y="-15" on="1"/>
        <pt x="218" y="-15" on="0"/>
        <pt x="113" y="77" on="0"/>
        <pt x="113" y="157" on="1"/>
        <pt x="113" y="228" on="0"/>
        <pt x="208" y="321" on="0"/>
        <pt x="295" y="335" on="1"/>
        <pt x="515" y="368" on="1"/>
        <pt x="515" y="382" on="1"/>
        <pt x="515" y="450" on="0"/>
        <pt x="435" y="522" on="0"/>
        <pt x="359" y="522" on="1"/>
        <pt x="282" y="522" on="0"/>
        <pt x="186" y="452" on="0"/>
        <pt x="177" y="390" on="1"/>
        <pt x="77" y="390" on="1"/>
      </contour>
      <contour>
        <pt x="212" y="117" on="0"/>
        <pt x="271" y="72" on="0"/>
        <pt x="327" y="72" on="1"/>
        <pt x="380" y="72" on="0"/>
        <pt x="466" y="119" on="0"/>
        <pt x="515" y="202" on="0"/>
        <pt x="515" y="253" on="1"/>
        <pt x="515" y="281" on="1"/>
        <pt x="310" y="250" on="1"/>
        <pt x="212" y="235" on="0"/>
        <pt x="212" y="158" on="1"/>
      </contour>
    </TTGlyph>
    <TTGlyph name="ampersand" xMin="96" yMin="-23" xMax="654" yMax="815">
      <contour>
        <pt x="96" y="283" on="0"/>
        <pt x="176" y="392" on="0"/>
        <pt x="248" y="445" on="1"/>
        <pt x="205" y="498" on="0"/>
        <pt x="166" y="588" on="0"/>
        <pt x="166" y="632" on="1"/>
        <pt x="166" y="717" on="0"/>
        <pt x="257" y="815" on="0"/>
        <pt x="336" y="815" on="1"/>
        <pt x="415" y="815" on="0"/>
        <pt x="505" y="719" on="0"/>
        <pt x="505" y="636" on="1"/>
        <pt x="505" y="569" on="0"/>
        <pt x="441" y="473" on="0"/>
        <pt x="383" y="428" on="1"/>
        <pt x="512" y="281" on="1"/>
        <pt x="526" y="335" on="0"/>
        <pt x="532" y="397" on="1"/>
        <pt x="634" y="397" on="1"/>
        <pt x="621" y="282" on="0"/>
        <pt x="587" y="194" on="1"/>
        <pt x="654" y="118" on="1"/>
        <pt x="654" y="-23" on="1"/>
        <pt x="542" y="106" on="1"/>
        <pt x="460" y="-15" on="0"/>
        <pt x="316" y="-15" on="1"/>
        <pt x="251" y="-15" on="0"/>
        <pt x="151" y="39" on="0"/>
        <pt x="96" y="136" on="0"/>
        <pt x="96" y="199" on="1"/>
      </contour>
      <contour>
        <pt x="198" y="147" on="0"/>
        <pt x="263" y="81" on="0"/>
        <pt x="316" y="81" on="1"/>
        <pt x="420" y="81" on="0"/>
        <pt x="475" y="183" on="1"/>
        <pt x="310" y="373" on="1"/>
        <pt x="256" y="332" on="0"/>
        <pt x="198" y="255" on="0"/>
        <pt x="198" y="202" on="1"/>
      </contour>
      <contour>
        <pt x="268" y="595" on="0"/>
        <pt x="293" y="532" on="0"/>
        <pt x="322" y="499" on="1"/>
        <pt x="362" y="532" on="0"/>
        <pt x="404" y="595" on="0"/>
        <pt x="404" y="636" on="1"/>
        <pt x="404" y="674" on="0"/>
        <pt x="367" y="719" on="0"/>
        <pt x="336" y="719" on="1"/>
        <pt x="304" y="719" on="0"/>
        <pt x="268" y="672" on="0"/>
        <pt x="268" y="632" on="1"/>
      </contour>
    </TTGlyph>
    <TTGlyph name="approxequal" xMin="80" yMin="114" xMax="670" yMax="586">
      <component glyphName="asciitilde" x="0" y="127" flags="0x4"/>
      <component glyphName="asciitilde" x="0" y="-127" flags="0x4"/>
    </TTGlyph>
    <TTGlyph name="approxequal.case" xMin="80" yMin="164" xMax="670" yMax="636">
      <component glyphName="approxequal" x="0" y="50" flags="0x4"/>
    </TTGlyph>
    <TTGlyph name="asciicircum" xMin="136" yMin="503" xMax="614" yMax="815">
      <contour>
        <pt x="311" y="815" on="1"/>
        <pt x="439" y="815" on="1"/>
        <pt x="614" y="503" on="1"/>
        <pt x="519" y="503" on="1"/>
        <pt x="375" y="766" on="1"/>
        <pt x="231" y="503" on="1"/>
        <pt x="136" y="503" on="1"/>
      </contour>
    </TTGlyph>
    <TTGlyph name="asciitilde" xMin="80" yMin="241" xMax="670" yMax="459">
      <contour>
        <pt x="463" y="241" on="0"/>
        <pt x="392" y="280" on="0"/>
        <pt x="345" y="318" on="1"/>
        <pt x="310" y="347" on="0"/>
        <pt x="264" y="375" on="0"/>
        <pt x="237" y="375" on="1"/>
        <pt x="208" y="375" on="0"/>
        <pt x="167" y="331" on="0"/>
        <pt x="162" y="293" on="1"/>
        <pt x="80" y="293" on="1"/>
        <pt x="90" y="370" on="0"/>
        <pt x="174" y="459" on="0"/>
        <pt x="237" y="459" on="1"/>
        <pt x="287" y="459" on="0"/>
        <pt x="358" y="420" on="0"/>
        <pt x="405" y="382" on="1"/>
        <pt x="440" y="353" on="0"/>
        <pt x="486" y="325" on="0"/>
        <pt x="513" y="325" on="1"/>
        <pt x="542" y="325" on="0"/>
        <pt x="583" y="369" on="0"/>
        <pt x="588" y="407" on="1"/>
        <pt x="670" y="407" on="1"/>
        <pt x="660" y="330" on="0"/>
        <pt x="576" y="241" on="0"/>
        <pt x="513" y="241" on="1"/>
      </contour>
    </TTGlyph>
    <TTGlyph name="asciitilde.case" xMin="80" yMin="291" xMax="670" yMax="509">
      <component glyphName="asciitilde" x="0" y="50" flags="0x4"/>
    </TTGlyph>
    <TTGlyph name="asterisk" xMin="123" yMin="335" xMax="627" yMax="815">
      <contour>
        <pt x="428" y="815" on="1"/>
        <pt x="412" y="619" on="1"/>
        <pt x="594" y="694" on="1"/>
        <pt x="627" y="593" on="1"/>
        <pt x="435" y="548" on="1"/>
        <pt x="564" y="398" on="1"/>
        <pt x="478" y="335" on="1"/>
        <pt x="375" y="505" on="1"/>
        <pt x="272" y="335" on="1"/>
        <pt x="186" y="398" on="1"/>
        <pt x="315" y="548" on="1"/>
        <pt x="123" y="593" on="1"/>
        <pt x="156" y="694" on="1"/>
        <pt x="338" y="619" on="1"/>
        <pt x="322" y="815" on="1"/>
      </contour>
    </TTGlyph>
    <TTGlyph name="at" xMin="66" yMin="-132" xMax="663" yMax="815">
      <contour>
        <pt x="235" y="-132" on="0"/>
        <pt x="66" y="106" on="0"/>
        <pt x="66" y="340" on="1"/>
        <pt x="66" y="575" on="0"/>
        <pt x="235" y="815" on="0"/>
        <pt x="399" y="815" on="1"/>
        <pt x="530" y="815" on="0"/>
        <pt x="663" y="662" on="0"/>
        <pt x="663" y="512" on="1"/>
        <pt x="663" y="111" on="1"/>
        <pt x="594" y="111" on="1"/>
        <pt x="594" y="172" on="1"/>
        <pt x="566" y="172" on="1"/>
        <pt x="545" y="96" on="0"/>
        <pt x="452" y="96" on="1"/>
        <pt x="368" y="96" on="0"/>
        <pt x="282" y="219" on="0"/>
        <pt x="282" y="340" on="1"/>
        <pt x="282" y="461" on="0"/>
        <pt x="368" y="584" on="0"/>
        <pt x="452" y="584" on="1"/>
        <pt x="537" y="584" on="0"/>
        <pt x="558" y="508" on="1"/>
        <pt x="586" y="508" on="1"/>
        <pt x="586" y="512" on="1"/>
        <pt x="586" y="625" on="0"/>
        <pt x="491" y="740" on="0"/>
        <pt x="399" y="740" on="1"/>
        <pt x="274" y="740" on="0"/>
        <pt x="145" y="538" on="0"/>
        <pt x="145" y="340" on="1"/>
        <pt x="145" y="143" on="0"/>
        <pt x="274" y="-59" on="0"/>
        <pt x="401" y="-59" on="1"/>
        <pt x="508" y="-59" on="0"/>
        <pt x="566" y="-20" on="1"/>
        <pt x="566" y="-92" on="1"/>
        <pt x="507" y="-132" on="0"/>
        <pt x="401" y="-132" on="1"/>
      </contour>
      <contour>
        <pt x="361" y="173" on="0"/>
        <pt x="476" y="173" on="1"/>
        <pt x="532" y="173" on="0"/>
        <pt x="590" y="257" on="0"/>
        <pt x="590" y="340" on="1"/>
        <pt x="590" y="423" on="0"/>
        <pt x="532" y="507" on="0"/>
        <pt x="476" y="507" on="1"/>
        <pt x="361" y="507" on="0"/>
        <pt x="361" y="340" on="1"/>
      </contour>
    </TTGlyph>
    <TTGlyph name="b" xMin="118" yMin="-15" xMax="681" yMax="848">
      <contour>
        <pt x="351" y="-15" on="0"/>
        <pt x="258" y="41" on="0"/>
        <pt x="242" y="93" on="1"/>
        <pt x="214" y="93" on="1"/>
        <pt x="214" y="0" on="1"/>
        <pt x="118" y="0" on="1"/>
        <pt x="118" y="848" on="1"/>
        <pt x="214" y="848" on="1"/>
        <pt x="214" y="504" on="1"/>
        <pt x="242" y="504" on="1"/>
        <pt x="258" y="556" on="0"/>
        <pt x="351" y="613" on="0"/>
        <pt x="420" y="613" on="1"/>
        <pt x="498" y="613" on="0"/>
        <pt x="616" y="535" on="0"/>
        <pt x="681" y="393" on="0"/>
        <pt x="681" y="299" on="1"/>
        <pt x="681" y="205" on="0"/>
        <pt x="616" y="63" on="0"/>
        <pt x="498" y="-15" on="0"/>
        <pt x="420" y="-15" on="1"/>
      </contour>
      <contour>
        <pt x="209" y="194" on="0"/>
        <pt x="308" y="74" on="0"/>
        <pt x="396" y="74" on="1"/>
        <pt x="484" y="74" on="0"/>
        <pt x="583" y="194" on="0"/>
        <pt x="583" y="299" on="1"/>
        <pt x="583" y="404" on="0"/>
        <pt x="483" y="524" on="0"/>
        <pt x="396" y="524" on="1"/>
        <pt x="309" y="524" on="0"/>
        <pt x="209" y="404" on="0"/>
        <pt x="209" y="299" on="1"/>
      </contour>
    </TTGlyph>
    <TTGlyph name="backslash" xMin="138" yMin="-170" xMax="612" yMax="848">
      <contour>
        <pt x="234" y="848" on="1"/>
        <pt x="612" y="-170" on="1"/>
        <pt x="516" y="-170" on="1"/>
        <pt x="138" y="848" on="1"/>
      </contour>
    </TTGlyph>
    <TTGlyph name="bar" xMin="334" yMin="-60" xMax="416" yMax="860">
      <contour>
        <pt x="416" y="-60" on="1"/>
        <pt x="334" y="-60" on="1"/>
        <pt x="334" y="860" on="1"/>
        <pt x="416" y="860" on="1"/>
      </contour>
    </TTGlyph>
    <TTGlyph name="braceleft" xMin="269" yMin="-147" xMax="571" yMax="907">
      <contour>
        <pt x="506" y="818" on="0"/>
        <pt x="434" y="762" on="0"/>
        <pt x="434" y="718" on="1"/>
        <pt x="434" y="687" on="0"/>
        <pt x="444" y="625" on="1"/>
        <pt x="454" y="563" on="0"/>
        <pt x="454" y="532" on="1"/>
        <pt x="454" y="402" on="0"/>
        <pt x="331" y="387" on="1"/>
        <pt x="331" y="373" on="1"/>
        <pt x="454" y="358" on="0"/>
        <pt x="454" y="228" on="1"/>
        <pt x="454" y="197" on="0"/>
        <pt x="444" y="135" on="1"/>
        <pt x="434" y="73" on="0"/>
        <pt x="434" y="42" on="1"/>
        <pt x="434" y="-2" on="0"/>
        <pt x="506" y="-58" on="0"/>
        <pt x="571" y="-64" on="1"/>
        <pt x="571" y="-147" on="1"/>
        <pt x="468" y="-140" on="0"/>
        <pt x="346" y="-33" on="0"/>
        <pt x="346" y="50" on="1"/>
        <pt x="346" y="75" on="0"/>
        <pt x="356" y="127" on="1"/>
        <pt x="366" y="179" on="0"/>
        <pt x="366" y="208" on="1"/>
        <pt x="366" y="271" on="0"/>
        <pt x="319" y="330" on="0"/>
        <pt x="269" y="329" on="1"/>
        <pt x="269" y="431" on="1"/>
        <pt x="319" y="430" on="0"/>
        <pt x="366" y="489" on="0"/>
        <pt x="366" y="552" on="1"/>
        <pt x="366" y="581" on="0"/>
        <pt x="356" y="633" on="1"/>
        <pt x="346" y="685" on="0"/>
        <pt x="346" y="710" on="1"/>
        <pt x="346" y="793" on="0"/>
        <pt x="468" y="900" on="0"/>
        <pt x="571" y="907" on="1"/>
        <pt x="571" y="824" on="1"/>
      </contour>
    </TTGlyph>
    <TTGlyph name="braceright" xMin="179" yMin="-147" xMax="481" yMax="907">
      <contour>
        <pt x="282" y="900" on="0"/>
        <pt x="404" y="793" on="0"/>
        <pt x="404" y="710" on="1"/>
        <pt x="404" y="685" on="0"/>
        <pt x="394" y="633" on="1"/>
        <pt x="384" y="581" on="0"/>
        <pt x="384" y="552" on="1"/>
        <pt x="384" y="489" on="0"/>
        <pt x="431" y="430" on="0"/>
        <pt x="481" y="431" on="1"/>
        <pt x="481" y="329" on="1"/>
        <pt x="431" y="330" on="0"/>
        <pt x="384" y="271" on="0"/>
        <pt x="384" y="208" on="1"/>
        <pt x="384" y="179" on="0"/>
        <pt x="394" y="127" on="1"/>
        <pt x="404" y="75" on="0"/>
        <pt x="404" y="50" on="1"/>
        <pt x="404" y="-33" on="0"/>
        <pt x="282" y="-140" on="0"/>
        <pt x="179" y="-147" on="1"/>
        <pt x="179" y="-64" on="1"/>
        <pt x="244" y="-58" on="0"/>
        <pt x="316" y="-2" on="0"/>
        <pt x="316" y="42" on="1"/>
        <pt x="316" y="73" on="0"/>
        <pt x="306" y="135" on="1"/>
        <pt x="296" y="197" on="0"/>
        <pt x="296" y="228" on="1"/>
        <pt x="296" y="358" on="0"/>
        <pt x="419" y="373" on="1"/>
        <pt x="419" y="387" on="1"/>
        <pt x="296" y="402" on="0"/>
        <pt x="296" y="532" on="1"/>
        <pt x="296" y="563" on="0"/>
        <pt x="306" y="625" on="1"/>
        <pt x="316" y="687" on="0"/>
        <pt x="316" y="718" on="1"/>
        <pt x="316" y="762" on="0"/>
        <pt x="244" y="818" on="0"/>
        <pt x="179" y="824" on="1"/>
        <pt x="179" y="907" on="1"/>
      </contour>
    </TTGlyph>
    <TTGlyph name="bracketleft" xMin="334" yMin="-138" xMax="571" yMax="898">
      <contour>
        <pt x="571" y="816" on="1"/>
        <pt x="419" y="816" on="1"/>
        <pt x="419" y="-56" on="1"/>
        <pt x="571" y="-56" on="1"/>
        <pt x="571" y="-138" on="1"/>
        <pt x="334" y="-138" on="1"/>
        <pt x="334" y="898" on="1"/>
        <pt x="571" y="898" on="1"/>
      </contour>
    </TTGlyph>
    <TTGlyph name="bracketright" xMin="179" yMin="-138" xMax="416" yMax="898">
      <contour>
        <pt x="416" y="898" on="1"/>
        <pt x="416" y="-138" on="1"/>
        <pt x="179" y="-138" on="1"/>
        <pt x="179" y="-56" on="1"/>
        <pt x="331" y="-56" on="1"/>
        <pt x="331" y="816" on="1"/>
        <pt x="179" y="816" on="1"/>
        <pt x="179" y="898" on="1"/>
      </contour>
    </TTGlyph>
    <TTGlyph name="bullet" xMin="185" yMin="160" xMax="565" yMax="540">
      <contour>
        <pt x="284" y="160" on="0"/>
        <pt x="185" y="259" on="0"/>
        <pt x="185" y="350" on="1"/>
        <pt x="185" y="442" on="0"/>
        <pt x="284" y="540" on="0"/>
        <pt x="375" y="540" on="1"/>
        <pt x="467" y="540" on="0"/>
        <pt x="565" y="442" on="0"/>
        <pt x="565" y="350" on="1"/>
        <pt x="565" y="259" on="0"/>
        <pt x="467" y="160" on="0"/>
        <pt x="375" y="160" on="1"/>
      </contour>
    </TTGlyph>
    <TTGlyph name="c" xMin="102" yMin="-15" xMax="666" yMax="613">
      <contour>
        <pt x="302" y="-15" on="0"/>
        <pt x="172" y="62" on="0"/>
        <pt x="102" y="202" on="0"/>
        <pt x="102" y="296" on="1"/>
        <pt x="102" y="391" on="0"/>
        <pt x="175" y="535" on="0"/>
        <pt x="308" y="613" on="0"/>
        <pt x="396" y="613" on="1"/>
        <pt x="471" y="613" on="0"/>
        <pt x="589" y="552" on="0"/>
        <pt x="660" y="441" on="0"/>
        <pt x="666" y="368" on="1"/>
        <pt x="573" y="368" on="1"/>
        <pt x="564" y="440" on="0"/>
        <pt x="468" y="522" on="0"/>
        <pt x="392" y="522" on="1"/>
        <pt x="301" y="522" on="0"/>
        <pt x="198" y="402" on="0"/>
        <pt x="198" y="296" on="1"/>
        <pt x="198" y="192" on="0"/>
        <pt x="299" y="75" on="0"/>
        <pt x="388" y="75" on="1"/>
        <pt x="457" y="75" on="0"/>
        <pt x="548" y="148" on="0"/>
        <pt x="558" y="212" on="1"/>
        <pt x="651" y="212" on="1"/>
        <pt x="644" y="144" on="0"/>
        <pt x="574" y="41" on="0"/>
        <pt x="460" y="-15" on="0"/>
        <pt x="388" y="-15" on="1"/>
      </contour>
    </TTGlyph>
    <TTGlyph name="cent" xMin="102" yMin="-101" xMax="666" yMax="699">
      <contour>
        <pt x="350" y="-13" on="1"/>
        <pt x="274" y="-5" on="0"/>
        <pt x="162" y="76" on="0"/>
        <pt x="102" y="209" on="0"/>
        <pt x="102" y="296" on="1"/>
        <pt x="102" y="427" on="0"/>
        <pt x="236" y="595" on="0"/>
        <pt x="350" y="610" on="1"/>
        <pt x="350" y="699" on="1"/>
        <pt x="422" y="699" on="1"/>
        <pt x="422" y="612" on="1"/>
        <pt x="525" y="604" on="0"/>
        <pt x="658" y="472" on="0"/>
        <pt x="666" y="368" on="1"/>
        <pt x="573" y="368" on="1"/>
        <pt x="565" y="432" on="0"/>
        <pt x="485" y="512" on="0"/>
        <pt x="422" y="520" on="1"/>
        <pt x="422" y="77" on="1"/>
        <pt x="478" y="86" on="0"/>
        <pt x="549" y="156" on="0"/>
        <pt x="558" y="212" on="1"/>
        <pt x="651" y="212" on="1"/>
        <pt x="641" y="117" on="0"/>
        <pt x="518" y="-3" on="0"/>
        <pt x="422" y="-13" on="1"/>
        <pt x="422" y="-101" on="1"/>
        <pt x="350" y="-101" on="1"/>
      </contour>
      <contour>
        <pt x="198" y="204" on="0"/>
        <pt x="278" y="90" on="0"/>
        <pt x="350" y="78" on="1"/>
        <pt x="350" y="518" on="1"/>
        <pt x="278" y="504" on="0"/>
        <pt x="198" y="389" on="0"/>
        <pt x="198" y="296" on="1"/>
      </contour>
    </TTGlyph>
    <TTGlyph name="cent.bold" xMin="102" yMin="-101" xMax="666" yMax="699">
      <contour>
        <pt x="422" y="699" on="1"/>
        <pt x="422" y="612" on="1"/>
        <pt x="525" y="604" on="0"/>
        <pt x="658" y="472" on="0"/>
        <pt x="666" y="368" on="1"/>
        <pt x="573" y="368" on="1"/>
        <pt x="564" y="440" on="0"/>
        <pt x="468" y="522" on="0"/>
        <pt x="392" y="522" on="1"/>
        <pt x="301" y="522" on="0"/>
        <pt x="198" y="402" on="0"/>
        <pt x="198" y="296" on="1"/>
        <pt x="198" y="192" on="0"/>
        <pt x="299" y="75" on="0"/>
        <pt x="388" y="75" on="1"/>
        <pt x="457" y="75" on="0"/>
        <pt x="548" y="148" on="0"/>
        <pt x="558" y="212" on="1"/>
        <pt x="651" y="212" on="1"/>
        <pt x="641" y="117" on="0"/>
        <pt x="518" y="-3" on="0"/>
        <pt x="422" y="-13" on="1"/>
        <pt x="422" y="-101" on="1"/>
        <pt x="350" y="-101" on="1"/>
        <pt x="350" y="-13" on="1"/>
        <pt x="274" y="-5" on="0"/>
        <pt x="162" y="76" on="0"/>
        <pt x="102" y="209" on="0"/>
        <pt x="102" y="296" on="1"/>
        <pt x="102" y="427" on="0"/>
        <pt x="236" y="595" on="0"/>
        <pt x="350" y="610" on="1"/>
        <pt x="350" y="699" on="1"/>
      </contour>
    </TTGlyph>
    <TTGlyph name="colon" xMin="286" yMin="-8" xMax="464" yMax="605">
      <component glyphName="period" x="0" y="0" flags="0x0"/>
      <component glyphName="period" x="0" y="445" flags="0x4"/>
    </TTGlyph>
    <TTGlyph name="colon.case" xMin="286" yMin="93" xMax="464" yMax="706">
      <component glyphName="colon" x="0" y="101" flags="0x4"/>
    </TTGlyph>
    <TTGlyph name="comma" xMin="273" yMin="-178" xMax="473" yMax="160">
      <contour>
        <pt x="332" y="-8" on="0"/>
        <pt x="286" y="36" on="0"/>
        <pt x="286" y="76" on="1"/>
        <pt x="286" y="116" on="0"/>
        <pt x="332" y="160" on="0"/>
        <pt x="375" y="160" on="1"/>
        <pt x="425" y="160" on="0"/>
        <pt x="473" y="105" on="0"/>
        <pt x="473" y="47" on="1"/>
        <pt x="473" y="-23" on="0"/>
        <pt x="442" y="-132" on="0"/>
        <pt x="410" y="-178" on="1"/>
        <pt x="273" y="-178" on="1"/>
        <pt x="330" y="-137" on="0"/>
        <pt x="395" y="-53" on="0"/>
        <pt x="405" y="-5" on="1"/>
        <pt x="392" y="-8" on="0"/>
        <pt x="375" y="-8" on="1"/>
      </contour>
    </TTGlyph>
    <TTGlyph name="copyright" xMin="66" yMin="91" xMax="684" yMax="709">
      <contour>
        <pt x="289" y="91" on="0"/>
        <pt x="148" y="173" on="0"/>
        <pt x="66" y="314" on="0"/>
        <pt x="66" y="400" on="1"/>
        <pt x="66" y="486" on="0"/>
        <pt x="148" y="627" on="0"/>
        <pt x="289" y="709" on="0"/>
        <pt x="375" y="709" on="1"/>
        <pt x="461" y="709" on="0"/>
        <pt x="602" y="627" on="0"/>
        <pt x="684" y="486" on="0"/>
        <pt x="684" y="400" on="1"/>
        <pt x="684" y="314" on="0"/>
        <pt x="602" y="173" on="0"/>
        <pt x="461" y="91" on="0"/>
        <pt x="375" y="91" on="1"/>
      </contour>
      <contour>
        <pt x="125" y="328" on="0"/>
        <pt x="189" y="214" on="0"/>
        <pt x="303" y="150" on="0"/>
        <pt x="375" y="150" on="1"/>
        <pt x="447" y="150" on="0"/>
        <pt x="561" y="214" on="0"/>
        <pt x="625" y="328" on="0"/>
        <pt x="625" y="400" on="1"/>
        <pt x="625" y="472" on="0"/>
        <pt x="561" y="586" on="0"/>
        <pt x="447" y="650" on="0"/>
        <pt x="375" y="650" on="1"/>
        <pt x="303" y="650" on="0"/>
        <pt x="189" y="586" on="0"/>
        <pt x="125" y="472" on="0"/>
        <pt x="125" y="400" on="1"/>
      </contour>
      <contour>
        <pt x="227" y="472" on="0"/>
        <pt x="310" y="560" on="0"/>
        <pt x="378" y="560" on="1"/>
        <pt x="436" y="560" on="0"/>
        <pt x="516" y="489" on="0"/>
        <pt x="524" y="430" on="1"/>
        <pt x="464" y="430" on="1"/>
        <pt x="459" y="463" on="0"/>
        <pt x="412" y="502" on="0"/>
        <pt x="378" y="502" on="1"/>
        <pt x="335" y="502" on="0"/>
        <pt x="286" y="447" on="0"/>
        <pt x="286" y="400" on="1"/>
        <pt x="286" y="356" on="0"/>
        <pt x="336" y="301" on="0"/>
        <pt x="377" y="301" on="1"/>
        <pt x="408" y="301" on="0"/>
        <pt x="449" y="334" on="0"/>
        <pt x="452" y="361" on="1"/>
        <pt x="513" y="361" on="1"/>
        <pt x="509" y="309" on="0"/>
        <pt x="432" y="243" on="0"/>
        <pt x="377" y="243" on="1"/>
        <pt x="312" y="243" on="0"/>
        <pt x="227" y="332" on="0"/>
        <pt x="227" y="400" on="1"/>
      </contour>
    </TTGlyph>
    <TTGlyph name="currency" xMin="124" yMin="99" xMax="626" yMax="601">
      <contour>
        <pt x="306" y="140" on="0"/>
        <pt x="253" y="179" on="1"/>
        <pt x="173" y="99" on="1"/>
        <pt x="124" y="148" on="1"/>
        <pt x="204" y="228" on="1"/>
        <pt x="165" y="281" on="0"/>
        <pt x="165" y="350" on="1"/>
        <pt x="165" y="419" on="0"/>
        <pt x="204" y="472" on="1"/>
        <pt x="124" y="552" on="1"/>
        <pt x="173" y="601" on="1"/>
        <pt x="253" y="521" on="1"/>
        <pt x="306" y="560" on="0"/>
        <pt x="375" y="560" on="1"/>
        <pt x="444" y="560" on="0"/>
        <pt x="497" y="521" on="1"/>
        <pt x="577" y="601" on="1"/>
        <pt x="626" y="552" on="1"/>
        <pt x="546" y="472" on="1"/>
        <pt x="585" y="419" on="0"/>
        <pt x="585" y="350" on="1"/>
        <pt x="585" y="281" on="0"/>
        <pt x="546" y="228" on="1"/>
        <pt x="626" y="148" on="1"/>
        <pt x="577" y="99" on="1"/>
        <pt x="497" y="179" on="1"/>
        <pt x="444" y="140" on="0"/>
        <pt x="375" y="140" on="1"/>
      </contour>
      <contour>
        <pt x="244" y="315" on="0"/>
        <pt x="279" y="254" on="0"/>
        <pt x="340" y="219" on="0"/>
        <pt x="375" y="219" on="1"/>
        <pt x="410" y="219" on="0"/>
        <pt x="471" y="254" on="0"/>
        <pt x="506" y="315" on="0"/>
        <pt x="506" y="350" on="1"/>
        <pt x="506" y="385" on="0"/>
        <pt x="471" y="446" on="0"/>
        <pt x="410" y="481" on="0"/>
        <pt x="375" y="481" on="1"/>
        <pt x="340" y="481" on="0"/>
        <pt x="279" y="446" on="0"/>
        <pt x="244" y="385" on="0"/>
        <pt x="244" y="350" on="1"/>
      </contour>
    </TTGlyph>
    <TTGlyph name="d" xMin="69" yMin="-15" xMax="632" yMax="848">
      <contour>
        <pt x="252" y="-15" on="0"/>
        <pt x="134" y="63" on="0"/>
        <pt x="69" y="205" on="0"/>
        <pt x="69" y="299" on="1"/>
        <pt x="69" y="393" on="0"/>
        <pt x="134" y="535" on="0"/>
        <pt x="252" y="613" on="0"/>
        <pt x="330" y="613" on="1"/>
        <pt x="399" y="613" on="0"/>
        <pt x="492" y="556" on="0"/>
        <pt x="508" y="504" on="1"/>
        <pt x="536" y="504" on="1"/>
        <pt x="536" y="848" on="1"/>
        <pt x="632" y="848" on="1"/>
        <pt x="632" y="0" on="1"/>
        <pt x="536" y="0" on="1"/>
        <pt x="536" y="93" on="1"/>
        <pt x="508" y="93" on="1"/>
        <pt x="492" y="41" on="0"/>
        <pt x="399" y="-15" on="0"/>
        <pt x="330" y="-15" on="1"/>
      </contour>
      <contour>
        <pt x="167" y="194" on="0"/>
        <pt x="266" y="74" on="0"/>
        <pt x="354" y="74" on="1"/>
        <pt x="442" y="74" on="0"/>
        <pt x="541" y="194" on="0"/>
        <pt x="541" y="299" on="1"/>
        <pt x="541" y="404" on="0"/>
        <pt x="441" y="524" on="0"/>
        <pt x="354" y="524" on="1"/>
        <pt x="267" y="524" on="0"/>
        <pt x="167" y="404" on="0"/>
        <pt x="167" y="299" on="1"/>
      </contour>
    </TTGlyph>
    <TTGlyph name="divide" xMin="96" yMin="59" xMax="654" yMax="641">
      <component glyphName="minus" x="0" y="0" flags="0x0"/>
      <component glyphName="uni0307" x="291" y="-204" flags="0x4"/>
      <component glyphName="uni0307" x="291" y="-633" flags="0x4"/>
    </TTGlyph>
    <TTGlyph name="divide.case" xMin="96" yMin="109" xMax="654" yMax="691">
      <component glyphName="divide" x="0" y="50" flags="0x4"/>
    </TTGlyph>
    <TTGlyph name="dollar" xMin="95" yMin="-100" xMax="679" yMax="900">
      <contour>
        <pt x="214" y="94" on="0"/>
        <pt x="349" y="82" on="1"/>
        <pt x="349" y="351" on="1"/>
        <pt x="324" y="354" on="1"/>
        <pt x="212" y="368" on="0"/>
        <pt x="104" y="477" on="0"/>
        <pt x="104" y="577" on="1"/>
        <pt x="104" y="676" on="0"/>
        <pt x="237" y="804" on="0"/>
        <pt x="349" y="813" on="1"/>
        <pt x="349" y="900" on="1"/>
        <pt x="420" y="900" on="1"/>
        <pt x="420" y="814" on="1"/>
        <pt x="535" y="806" on="0"/>
        <pt x="669" y="684" on="0"/>
        <pt x="679" y="576" on="1"/>
        <pt x="578" y="576" on="1"/>
        <pt x="571" y="640" on="0"/>
        <pt x="491" y="711" on="0"/>
        <pt x="420" y="717" on="1"/>
        <pt x="420" y="446" on="1"/>
        <pt x="436" y="444" on="1"/>
        <pt x="548" y="431" on="0"/>
        <pt x="656" y="322" on="0"/>
        <pt x="656" y="221" on="1"/>
        <pt x="656" y="122" on="0"/>
        <pt x="528" y="-4" on="0"/>
        <pt x="420" y="-13" on="1"/>
        <pt x="420" y="-100" on="1"/>
        <pt x="349" y="-100" on="1"/>
        <pt x="349" y="-14" on="1"/>
        <pt x="238" y="-6" on="0"/>
        <pt x="107" y="106" on="0"/>
        <pt x="95" y="204" on="1"/>
        <pt x="197" y="204" on="1"/>
      </contour>
      <contour>
        <pt x="204" y="522" on="0"/>
        <pt x="267" y="463" on="0"/>
        <pt x="334" y="456" on="1"/>
        <pt x="349" y="454" on="1"/>
        <pt x="349" y="717" on="1"/>
        <pt x="281" y="709" on="0"/>
        <pt x="204" y="635" on="0"/>
        <pt x="204" y="577" on="1"/>
      </contour>
      <contour>
        <pt x="484" y="91" on="0"/>
        <pt x="556" y="164" on="0"/>
        <pt x="556" y="221" on="1"/>
        <pt x="556" y="276" on="0"/>
        <pt x="493" y="335" on="0"/>
        <pt x="426" y="342" on="1"/>
        <pt x="420" y="343" on="1"/>
        <pt x="420" y="83" on="1"/>
      </contour>
    </TTGlyph>
    <TTGlyph name="dollar.bold" xMin="95" yMin="-100" xMax="679" yMax="900">
      <contour>
        <pt x="215" y="81" on="0"/>
        <pt x="384" y="81" on="1"/>
        <pt x="464" y="81" on="0"/>
        <pt x="556" y="156" on="0"/>
        <pt x="556" y="221" on="1"/>
        <pt x="556" y="276" on="0"/>
        <pt x="493" y="335" on="0"/>
        <pt x="426" y="342" on="1"/>
        <pt x="324" y="354" on="1"/>
        <pt x="212" y="368" on="0"/>
        <pt x="104" y="477" on="0"/>
        <pt x="104" y="577" on="1"/>
        <pt x="104" y="676" on="0"/>
        <pt x="237" y="804" on="0"/>
        <pt x="349" y="813" on="1"/>
        <pt x="349" y="900" on="1"/>
        <pt x="420" y="900" on="1"/>
        <pt x="420" y="814" on="1"/>
        <pt x="535" y="806" on="0"/>
        <pt x="669" y="684" on="0"/>
        <pt x="679" y="576" on="1"/>
        <pt x="578" y="576" on="1"/>
        <pt x="570" y="647" on="0"/>
        <pt x="473" y="719" on="0"/>
        <pt x="386" y="719" on="1"/>
        <pt x="301" y="719" on="0"/>
        <pt x="204" y="643" on="0"/>
        <pt x="204" y="577" on="1"/>
        <pt x="204" y="522" on="0"/>
        <pt x="267" y="463" on="0"/>
        <pt x="334" y="456" on="1"/>
        <pt x="436" y="444" on="1"/>
        <pt x="548" y="431" on="0"/>
        <pt x="656" y="322" on="0"/>
        <pt x="656" y="221" on="1"/>
        <pt x="656" y="122" on="0"/>
        <pt x="528" y="-4" on="0"/>
        <pt x="420" y="-13" on="1"/>
        <pt x="420" y="-100" on="1"/>
        <pt x="349" y="-100" on="1"/>
        <pt x="349" y="-14" on="1"/>
        <pt x="238" y="-6" on="0"/>
        <pt x="107" y="106" on="0"/>
        <pt x="95" y="204" on="1"/>
        <pt x="197" y="204" on="1"/>
      </contour>
    </TTGlyph>
    <TTGlyph name="dotlessi" xMin="160" yMin="0" xMax="658" yMax="598">
      <contour>
        <pt x="457" y="598" on="1"/>
        <pt x="457" y="90" on="1"/>
        <pt x="658" y="90" on="1"/>
        <pt x="658" y="0" on="1"/>
        <pt x="160" y="0" on="1"/>
        <pt x="160" y="90" on="1"/>
        <pt x="361" y="90" on="1"/>
        <pt x="361" y="507" on="1"/>
        <pt x="160" y="507" on="1"/>
        <pt x="160" y="598" on="1"/>
      </contour>
    </TTGlyph>
    <TTGlyph name="e" xMin="106" yMin="-15" xMax="662" yMax="613">
      <contour>
        <pt x="106" y="397" on="0"/>
        <pt x="176" y="537" on="0"/>
        <pt x="303" y="613" on="0"/>
        <pt x="387" y="613" on="1"/>
        <pt x="467" y="613" on="0"/>
        <pt x="583" y="540" on="0"/>
        <pt x="645" y="403" on="0"/>
        <pt x="645" y="309" on="1"/>
        <pt x="645" y="294" on="0"/>
        <pt x="643" y="268" on="1"/>
        <pt x="201" y="268" on="1"/>
        <pt x="209" y="175" on="0"/>
        <pt x="308" y="74" on="0"/>
        <pt x="392" y="74" on="1"/>
        <pt x="454" y="74" on="0"/>
        <pt x="543" y="131" on="0"/>
        <pt x="565" y="184" on="1"/>
        <pt x="662" y="184" on="1"/>
        <pt x="635" y="91" on="0"/>
        <pt x="491" y="-15" on="0"/>
        <pt x="392" y="-15" on="1"/>
        <pt x="303" y="-15" on="0"/>
        <pt x="174" y="61" on="0"/>
        <pt x="106" y="205" on="0"/>
        <pt x="106" y="304" on="1"/>
      </contour>
      <contour>
        <pt x="553" y="355" on="1"/>
        <pt x="544" y="437" on="0"/>
        <pt x="458" y="524" on="0"/>
        <pt x="387" y="524" on="1"/>
        <pt x="311" y="524" on="0"/>
        <pt x="215" y="435" on="0"/>
        <pt x="204" y="355" on="1"/>
      </contour>
    </TTGlyph>
    <TTGlyph name="eight" xMin="89" yMin="-15" xMax="661" yMax="815">
      <contour>
        <pt x="461" y="445" on="0"/>
        <pt x="560" y="518" on="0"/>
        <pt x="560" y="582" on="1"/>
        <pt x="560" y="646" on="0"/>
        <pt x="461" y="719" on="0"/>
        <pt x="375" y="719" on="1"/>
        <pt x="289" y="719" on="0"/>
        <pt x="190" y="646" on="0"/>
        <pt x="190" y="582" on="1"/>
        <pt x="190" y="518" on="0"/>
        <pt x="289" y="445" on="0"/>
        <pt x="375" y="445" on="1"/>
      </contour>
      <contour>
        <pt x="89" y="695" on="0"/>
        <pt x="242" y="815" on="0"/>
        <pt x="375" y="815" on="1"/>
        <pt x="508" y="815" on="0"/>
        <pt x="661" y="695" on="0"/>
        <pt x="661" y="591" on="1"/>
        <pt x="661" y="515" on="0"/>
        <pt x="579" y="419" on="0"/>
        <pt x="507" y="412" on="1"/>
        <pt x="507" y="384" on="1"/>
        <pt x="578" y="377" on="0"/>
        <pt x="659" y="282" on="0"/>
        <pt x="659" y="207" on="1"/>
        <pt x="659" y="104" on="0"/>
        <pt x="507" y="-15" on="0"/>
        <pt x="375" y="-15" on="1"/>
        <pt x="243" y="-15" on="0"/>
        <pt x="91" y="104" on="0"/>
        <pt x="91" y="207" on="1"/>
        <pt x="91" y="282" on="0"/>
        <pt x="172" y="377" on="0"/>
        <pt x="243" y="384" on="1"/>
        <pt x="243" y="412" on="1"/>
        <pt x="171" y="419" on="0"/>
        <pt x="89" y="515" on="0"/>
        <pt x="89" y="591" on="1"/>
      </contour>
      <contour>
        <pt x="192" y="154" on="0"/>
        <pt x="290" y="81" on="0"/>
        <pt x="375" y="81" on="1"/>
        <pt x="460" y="81" on="0"/>
        <pt x="558" y="154" on="0"/>
        <pt x="558" y="216" on="1"/>
        <pt x="558" y="278" on="0"/>
        <pt x="460" y="351" on="0"/>
        <pt x="375" y="351" on="1"/>
        <pt x="290" y="351" on="0"/>
        <pt x="192" y="278" on="0"/>
        <pt x="192" y="216" on="1"/>
      </contour>
    </TTGlyph>
    <TTGlyph name="ellipsis" xMin="54" yMin="-8" xMax="696" yMax="160">
      <contour>
        <pt x="339" y="-8" on="0"/>
        <pt x="300" y="36" on="0"/>
        <pt x="300" y="76" on="1"/>
        <pt x="300" y="116" on="0"/>
        <pt x="339" y="160" on="0"/>
        <pt x="375" y="160" on="1"/>
        <pt x="411" y="160" on="0"/>
        <pt x="450" y="116" on="0"/>
        <pt x="450" y="76" on="1"/>
        <pt x="450" y="36" on="0"/>
        <pt x="411" y="-8" on="0"/>
        <pt x="375" y="-8" on="1"/>
      </contour>
      <contour>
        <pt x="54" y="117" on="0"/>
        <pt x="93" y="160" on="0"/>
        <pt x="130" y="160" on="1"/>
        <pt x="166" y="160" on="0"/>
        <pt x="205" y="116" on="0"/>
        <pt x="205" y="76" on="1"/>
        <pt x="205" y="36" on="0"/>
        <pt x="166" y="-8" on="0"/>
        <pt x="130" y="-8" on="1"/>
        <pt x="93" y="-8" on="0"/>
        <pt x="54" y="36" on="0"/>
        <pt x="54" y="76" on="1"/>
      </contour>
      <contour>
        <pt x="545" y="116" on="0"/>
        <pt x="584" y="160" on="0"/>
        <pt x="620" y="160" on="1"/>
        <pt x="657" y="160" on="0"/>
        <pt x="696" y="117" on="0"/>
        <pt x="696" y="76" on="1"/>
        <pt x="696" y="36" on="0"/>
        <pt x="657" y="-8" on="0"/>
        <pt x="620" y="-8" on="1"/>
        <pt x="584" y="-8" on="0"/>
        <pt x="545" y="36" on="0"/>
        <pt x="545" y="76" on="1"/>
      </contour>
    </TTGlyph>
    <TTGlyph name="emdash" xMin="44" yMin="307" xMax="706" yMax="393">
      <contour>
        <pt x="706" y="393" on="1"/>
        <pt x="706" y="307" on="1"/>
        <pt x="44" y="307" on="1"/>
        <pt x="44" y="393" on="1"/>
      </contour>
    </TTGlyph>
    <TTGlyph name="emdash.case" xMin="44" yMin="357" xMax="706" yMax="443">
      <component glyphName="emdash" x="0" y="50" flags="0x4"/>
    </TTGlyph>
    <TTGlyph name="endash" xMin="76" yMin="307" xMax="674" yMax="393">
      <contour>
        <pt x="674" y="393" on="1"/>
        <pt x="674" y="307" on="1"/>
        <pt x="76" y="307" on="1"/>
        <pt x="76" y="393" on="1"/>
      </contour>
    </TTGlyph>
    <TTGlyph name="endash.case" xMin="76" yMin="357" xMax="674" yMax="443">
      <component glyphName="endash" x="0" y="50" flags="0x4"/>
    </TTGlyph>
    <TTGlyph name="equal" xMin="90" yMin="166" xMax="660" yMax="534">
      <contour>
        <pt x="90" y="534" on="1"/>
        <pt x="660" y="534" on="1"/>
        <pt x="660" y="446" on="1"/>
        <pt x="90" y="446" on="1"/>
      </contour>
      <contour>
        <pt x="90" y="254" on="1"/>
        <pt x="660" y="254" on="1"/>
        <pt x="660" y="166" on="1"/>
        <pt x="90" y="166" on="1"/>
      </contour>
    </TTGlyph>
    <TTGlyph name="equal.case" xMin="90" yMin="216" xMax="660" yMax="584">
      <component glyphName="equal" x="0" y="50" flags="0x4"/>
    </TTGlyph>
    <TTGlyph name="exclam" xMin="292" yMin="-7" xMax="457" yMax="800">
      <contour>
        <pt x="425" y="800" on="1"/>
        <pt x="425" y="218" on="1"/>
        <pt x="325" y="218" on="1"/>
        <pt x="325" y="800" on="1"/>
      </contour>
      <contour>
        <pt x="292" y="98" on="0"/>
        <pt x="335" y="135" on="0"/>
        <pt x="375" y="135" on="1"/>
        <pt x="415" y="135" on="0"/>
        <pt x="457" y="98" on="0"/>
        <pt x="457" y="64" on="1"/>
        <pt x="457" y="30" on="0"/>
        <pt x="415" y="-7" on="0"/>
        <pt x="375" y="-7" on="1"/>
        <pt x="335" y="-7" on="0"/>
        <pt x="292" y="30" on="0"/>
        <pt x="292" y="64" on="1"/>
      </contour>
    </TTGlyph>
    <TTGlyph name="f" xMin="146" yMin="0" xMax="707" yMax="863">
      <contour>
        <pt x="293" y="0" on="1"/>
        <pt x="293" y="507" on="1"/>
        <pt x="146" y="507" on="1"/>
        <pt x="146" y="598" on="1"/>
        <pt x="293" y="598" on="1"/>
        <pt x="293" y="660" on="1"/>
        <pt x="293" y="757" on="0"/>
        <pt x="400" y="863" on="0"/>
        <pt x="498" y="863" on="1"/>
        <pt x="590" y="863" on="0"/>
        <pt x="699" y="773" on="0"/>
        <pt x="707" y="690" on="1"/>
        <pt x="610" y="690" on="1"/>
        <pt x="605" y="731" on="0"/>
        <pt x="548" y="773" on="0"/>
        <pt x="498" y="773" on="1"/>
        <pt x="445" y="773" on="0"/>
        <pt x="389" y="715" on="0"/>
        <pt x="389" y="660" on="1"/>
        <pt x="389" y="598" on="1"/>
        <pt x="644" y="598" on="1"/>
        <pt x="644" y="507" on="1"/>
        <pt x="389" y="507" on="1"/>
        <pt x="389" y="0" on="1"/>
      </contour>
    </TTGlyph>
    <TTGlyph name="five" xMin="103" yMin="-15" xMax="667" yMax="800">
      <contour>
        <pt x="651" y="800" on="1"/>
        <pt x="651" y="704" on="1"/>
        <pt x="237" y="704" on="1"/>
        <pt x="237" y="450" on="1"/>
        <pt x="265" y="450" on="1"/>
        <pt x="276" y="487" on="0"/>
        <pt x="360" y="530" on="0"/>
        <pt x="422" y="530" on="1"/>
        <pt x="536" y="530" on="0"/>
        <pt x="667" y="386" on="0"/>
        <pt x="667" y="261" on="1"/>
        <pt x="667" y="176" on="0"/>
        <pt x="600" y="52" on="0"/>
        <pt x="474" y="-15" on="0"/>
        <pt x="388" y="-15" on="1"/>
        <pt x="269" y="-15" on="0"/>
        <pt x="116" y="120" on="0"/>
        <pt x="103" y="238" on="1"/>
        <pt x="211" y="238" on="1"/>
        <pt x="221" y="165" on="0"/>
        <pt x="316" y="81" on="0"/>
        <pt x="388" y="81" on="1"/>
        <pt x="470" y="81" on="0"/>
        <pt x="565" y="178" on="0"/>
        <pt x="565" y="261" on="1"/>
        <pt x="565" y="343" on="0"/>
        <pt x="472" y="437" on="0"/>
        <pt x="391" y="437" on="1"/>
        <pt x="334" y="437" on="0"/>
        <pt x="246" y="387" on="0"/>
        <pt x="227" y="344" on="1"/>
        <pt x="137" y="344" on="1"/>
        <pt x="137" y="800" on="1"/>
      </contour>
    </TTGlyph>
    <TTGlyph name="four" xMin="78" yMin="0" xMax="676" yMax="800">
      <contour>
        <pt x="551" y="334" on="1"/>
        <pt x="676" y="334" on="1"/>
        <pt x="676" y="238" on="1"/>
        <pt x="551" y="238" on="1"/>
        <pt x="551" y="0" on="1"/>
        <pt x="451" y="0" on="1"/>
        <pt x="451" y="238" on="1"/>
        <pt x="78" y="238" on="1"/>
        <pt x="78" y="385" on="1"/>
        <pt x="363" y="800" on="1"/>
        <pt x="551" y="800" on="1"/>
      </contour>
      <contour>
        <pt x="451" y="334" on="1"/>
        <pt x="451" y="762" on="1"/>
        <pt x="155" y="334" on="1"/>
      </contour>
    </TTGlyph>
    <TTGlyph name="g" xMin="88" yMin="-215" xMax="622" yMax="613">
      <contour>
        <pt x="622" y="-52" on="0"/>
        <pt x="556" y="-157" on="0"/>
        <pt x="435" y="-215" on="0"/>
        <pt x="355" y="-215" on="1"/>
        <pt x="244" y="-215" on="0"/>
        <pt x="98" y="-111" on="0"/>
        <pt x="88" y="-24" on="1"/>
        <pt x="192" y="-24" on="1"/>
        <pt x="200" y="-71" on="0"/>
        <pt x="287" y="-125" on="0"/>
        <pt x="355" y="-125" on="1"/>
        <pt x="435" y="-125" on="0"/>
        <pt x="526" y="-49" on="0"/>
        <pt x="526" y="18" on="1"/>
        <pt x="526" y="130" on="1"/>
        <pt x="498" y="130" on="1"/>
        <pt x="484" y="84" on="0"/>
        <pt x="399" y="31" on="0"/>
        <pt x="339" y="31" on="1"/>
        <pt x="264" y="31" on="0"/>
        <pt x="150" y="103" on="0"/>
        <pt x="88" y="235" on="0"/>
        <pt x="88" y="322" on="1"/>
        <pt x="88" y="409" on="0"/>
        <pt x="150" y="541" on="0"/>
        <pt x="264" y="613" on="0"/>
        <pt x="339" y="613" on="1"/>
        <pt x="399" y="613" on="0"/>
        <pt x="484" y="560" on="0"/>
        <pt x="498" y="514" on="1"/>
        <pt x="526" y="514" on="1"/>
        <pt x="526" y="598" on="1"/>
        <pt x="622" y="598" on="1"/>
        <pt x="622" y="18" on="1"/>
      </contour>
      <contour>
        <pt x="186" y="228" on="0"/>
        <pt x="279" y="120" on="0"/>
        <pt x="359" y="120" on="1"/>
        <pt x="440" y="120" on="0"/>
        <pt x="533" y="228" on="0"/>
        <pt x="533" y="322" on="1"/>
        <pt x="533" y="416" on="0"/>
        <pt x="440" y="524" on="0"/>
        <pt x="359" y="524" on="1"/>
        <pt x="279" y="524" on="0"/>
        <pt x="186" y="416" on="0"/>
        <pt x="186" y="322" on="1"/>
      </contour>
    </TTGlyph>
    <TTGlyph name="grave" xMin="223" yMin="584" xMax="527" yMax="848">
      <contour>
        <pt x="351" y="848" on="1"/>
        <pt x="527" y="584" on="1"/>
        <pt x="435" y="584" on="1"/>
        <pt x="223" y="848" on="1"/>
      </contour>
    </TTGlyph>
    <TTGlyph name="greater" xMin="126" yMin="32" xMax="624" yMax="668">
      <contour>
        <pt x="126" y="32" on="1"/>
        <pt x="126" y="131" on="1"/>
        <pt x="570" y="345" on="1"/>
        <pt x="570" y="355" on="1"/>
        <pt x="126" y="569" on="1"/>
        <pt x="126" y="668" on="1"/>
        <pt x="624" y="423" on="1"/>
        <pt x="624" y="277" on="1"/>
      </contour>
    </TTGlyph>
    <TTGlyph name="greater.case" xMin="126" yMin="82" xMax="624" yMax="718">
      <component glyphName="greater" x="0" y="50" flags="0x4"/>
    </TTGlyph>
    <TTGlyph name="guillemotleft" xMin="112" yMin="54" xMax="612" yMax="646">
      <contour>
        <pt x="112" y="279" on="1"/>
        <pt x="112" y="419" on="1"/>
        <pt x="389" y="646" on="1"/>
        <pt x="389" y="526" on="1"/>
        <pt x="167" y="350" on="1"/>
        <pt x="389" y="177" on="1"/>
        <pt x="389" y="54" on="1"/>
      </contour>
      <contour>
        <pt x="375" y="417" on="1"/>
        <pt x="612" y="584" on="1"/>
        <pt x="612" y="474" on="1"/>
        <pt x="430" y="351" on="1"/>
        <pt x="612" y="229" on="1"/>
        <pt x="612" y="116" on="1"/>
        <pt x="375" y="281" on="1"/>
      </contour>
    </TTGlyph>
    <TTGlyph name="guillemotright" xMin="138" yMin="54" xMax="638" yMax="646">
      <contour>
        <pt x="361" y="177" on="1"/>
        <pt x="583" y="350" on="1"/>
        <pt x="361" y="526" on="1"/>
        <pt x="361" y="646" on="1"/>
        <pt x="638" y="419" on="1"/>
        <pt x="638" y="279" on="1"/>
        <pt x="361" y="54" on="1"/>
      </contour>
      <contour>
        <pt x="138" y="229" on="1"/>
        <pt x="321" y="351" on="1"/>
        <pt x="138" y="474" on="1"/>
        <pt x="138" y="584" on="1"/>
        <pt x="375" y="417" on="1"/>
        <pt x="375" y="281" on="1"/>
        <pt x="138" y="116" on="1"/>
      </contour>
    </TTGlyph>
    <TTGlyph name="h" xMin="126" yMin="0" xMax="637" yMax="848">
      <contour>
        <pt x="222" y="848" on="1"/>
        <pt x="222" y="511" on="1"/>
        <pt x="250" y="511" on="1"/>
        <pt x="267" y="560" on="0"/>
        <pt x="352" y="613" on="0"/>
        <pt x="415" y="613" on="1"/>
        <pt x="481" y="613" on="0"/>
        <pt x="582" y="554" on="0"/>
        <pt x="637" y="445" on="0"/>
        <pt x="637" y="373" on="1"/>
        <pt x="637" y="0" on="1"/>
        <pt x="541" y="0" on="1"/>
        <pt x="541" y="348" on="1"/>
        <pt x="541" y="431" on="0"/>
        <pt x="457" y="522" on="0"/>
        <pt x="381" y="522" on="1"/>
        <pt x="305" y="522" on="0"/>
        <pt x="222" y="431" on="0"/>
        <pt x="222" y="348" on="1"/>
        <pt x="222" y="0" on="1"/>
        <pt x="126" y="0" on="1"/>
        <pt x="126" y="848" on="1"/>
      </contour>
    </TTGlyph>
    <TTGlyph name="hyphen" xMin="96" yMin="306" xMax="654" yMax="394">
      <component glyphName="minus" x="0" y="0" flags="0x0"/>
    </TTGlyph>
    <TTGlyph name="hyphen.case" xMin="96" yMin="356" xMax="654" yMax="444">
      <component glyphName="minus.case" x="0" y="0" flags="0x0"/>
    </TTGlyph>
    <TTGlyph name="i" xMin="160" yMin="0" xMax="658" yMax="843">
      <component glyphName="dotlessi" x="0" y="0" flags="0x0"/>
      <component glyphName="uni0307" x="325" y="-2" flags="0x4"/>
    </TTGlyph>
    <TTGlyph name="j" xMin="114" yMin="-215" xMax="554" yMax="843">
      <component glyphName="uni0237" x="0" y="0" flags="0x0"/>
      <component glyphName="uni0307" x="396" y="-2" flags="0x4"/>
    </TTGlyph>
    <TTGlyph name="k" xMin="169" yMin="0" xMax="691" yMax="848">
      <contour>
        <pt x="265" y="848" on="1"/>
        <pt x="265" y="320" on="1"/>
        <pt x="567" y="598" on="1"/>
        <pt x="691" y="598" on="1"/>
        <pt x="360" y="296" on="1"/>
        <pt x="681" y="0" on="1"/>
        <pt x="549" y="0" on="1"/>
        <pt x="265" y="263" on="1"/>
        <pt x="265" y="0" on="1"/>
        <pt x="169" y="0" on="1"/>
        <pt x="169" y="848" on="1"/>
      </contour>
    </TTGlyph>
    <TTGlyph name="l" xMin="146" yMin="0" xMax="644" yMax="848">
      <contour>
        <pt x="443" y="848" on="1"/>
        <pt x="443" y="90" on="1"/>
        <pt x="644" y="90" on="1"/>
        <pt x="644" y="0" on="1"/>
        <pt x="146" y="0" on="1"/>
        <pt x="146" y="90" on="1"/>
        <pt x="347" y="90" on="1"/>
        <pt x="347" y="758" on="1"/>
        <pt x="146" y="758" on="1"/>
        <pt x="146" y="848" on="1"/>
      </contour>
    </TTGlyph>
    <TTGlyph name="less" xMin="126" yMin="32" xMax="624" yMax="668">
      <contour>
        <pt x="624" y="668" on="1"/>
        <pt x="624" y="569" on="1"/>
        <pt x="180" y="355" on="1"/>
        <pt x="180" y="345" on="1"/>
        <pt x="624" y="131" on="1"/>
        <pt x="624" y="32" on="1"/>
        <pt x="126" y="277" on="1"/>
        <pt x="126" y="423" on="1"/>
      </contour>
    </TTGlyph>
    <TTGlyph name="less.case" xMin="126" yMin="82" xMax="624" yMax="718">
      <contour>
        <pt x="624" y="718" on="1"/>
        <pt x="624" y="619" on="1"/>
        <pt x="180" y="405" on="1"/>
        <pt x="180" y="395" on="1"/>
        <pt x="624" y="181" on="1"/>
        <pt x="624" y="82" on="1"/>
        <pt x="126" y="327" on="1"/>
        <pt x="126" y="473" on="1"/>
      </contour>
    </TTGlyph>
    <TTGlyph name="m" xMin="84" yMin="0" xMax="670" yMax="613">
      <contour>
        <pt x="180" y="598" on="1"/>
        <pt x="180" y="542" on="1"/>
        <pt x="211" y="542" on="1"/>
        <pt x="220" y="577" on="0"/>
        <pt x="269" y="613" on="0"/>
        <pt x="306" y="613" on="1"/>
        <pt x="341" y="613" on="0"/>
        <pt x="394" y="574" on="0"/>
        <pt x="409" y="538" on="1"/>
        <pt x="438" y="538" on="1"/>
        <pt x="449" y="575" on="0"/>
        <pt x="505" y="613" on="0"/>
        <pt x="547" y="613" on="1"/>
        <pt x="606" y="613" on="0"/>
        <pt x="670" y="524" on="0"/>
        <pt x="670" y="441" on="1"/>
        <pt x="670" y="0" on="1"/>
        <pt x="574" y="0" on="1"/>
        <pt x="574" y="416" on="1"/>
        <pt x="574" y="519" on="0"/>
        <pt x="499" y="519" on="1"/>
        <pt x="425" y="519" on="0"/>
        <pt x="425" y="416" on="1"/>
        <pt x="425" y="0" on="1"/>
        <pt x="329" y="0" on="1"/>
        <pt x="329" y="416" on="1"/>
        <pt x="329" y="519" on="0"/>
        <pt x="254" y="519" on="1"/>
        <pt x="180" y="519" on="0"/>
        <pt x="180" y="416" on="1"/>
        <pt x="180" y="0" on="1"/>
        <pt x="84" y="0" on="1"/>
        <pt x="84" y="598" on="1"/>
      </contour>
    </TTGlyph>
    <TTGlyph name="minus" xMin="96" yMin="306" xMax="654" yMax="394">
      <contour>
        <pt x="96" y="394" on="1"/>
        <pt x="654" y="394" on="1"/>
        <pt x="654" y="306" on="1"/>
        <pt x="96" y="306" on="1"/>
      </contour>
    </TTGlyph>
    <TTGlyph name="minus.case" xMin="96" yMin="356" xMax="654" yMax="444">
      <component glyphName="minus" x="0" y="50" flags="0x4"/>
    </TTGlyph>
    <TTGlyph name="multiply" xMin="125" yMin="100" xMax="625" yMax="600">
      <contour>
        <pt x="375" y="292" on="1"/>
        <pt x="183" y="100" on="1"/>
        <pt x="125" y="158" on="1"/>
        <pt x="317" y="350" on="1"/>
        <pt x="125" y="542" on="1"/>
        <pt x="183" y="600" on="1"/>
        <pt x="375" y="408" on="1"/>
        <pt x="567" y="600" on="1"/>
        <pt x="625" y="542" on="1"/>
        <pt x="433" y="350" on="1"/>
        <pt x="625" y="158" on="1"/>
        <pt x="567" y="100" on="1"/>
      </contour>
    </TTGlyph>
    <TTGlyph name="multiply.case" xMin="125" yMin="150" xMax="625" yMax="650">
      <component glyphName="multiply" x="0" y="50" flags="0x4"/>
    </TTGlyph>
    <TTGlyph name="n" xMin="126" yMin="0" xMax="637" yMax="613">
      <contour>
        <pt x="222" y="598" on="1"/>
        <pt x="222" y="511" on="1"/>
        <pt x="250" y="511" on="1"/>
        <pt x="267" y="560" on="0"/>
        <pt x="352" y="613" on="0"/>
        <pt x="415" y="613" on="1"/>
        <pt x="481" y="613" on="0"/>
        <pt x="582" y="554" on="0"/>
        <pt x="637" y="445" on="0"/>
        <pt x="637" y="373" on="1"/>
        <pt x="637" y="0" on="1"/>
        <pt x="541" y="0" on="1"/>
        <pt x="541" y="348" on="1"/>
        <pt x="541" y="431" on="0"/>
        <pt x="457" y="522" on="0"/>
        <pt x="381" y="522" on="1"/>
        <pt x="305" y="522" on="0"/>
        <pt x="222" y="431" on="0"/>
        <pt x="222" y="348" on="1"/>
        <pt x="222" y="0" on="1"/>
        <pt x="126" y="0" on="1"/>
        <pt x="126" y="598" on="1"/>
      </contour>
    </TTGlyph>
    <TTGlyph name="nine" xMin="84" yMin="0" xMax="666" yMax="815">
      <contour>
        <pt x="461" y="815" on="0"/>
        <pt x="593" y="747" on="0"/>
        <pt x="666" y="625" on="0"/>
        <pt x="666" y="546" on="1"/>
        <pt x="666" y="479" on="0"/>
        <pt x="621" y="358" on="0"/>
        <pt x="573" y="294" on="1"/>
        <pt x="353" y="0" on="1"/>
        <pt x="230" y="0" on="1"/>
        <pt x="465" y="310" on="1"/>
        <pt x="444" y="327" on="1"/>
        <pt x="428" y="311" on="0"/>
        <pt x="365" y="292" on="0"/>
        <pt x="328" y="292" on="1"/>
        <pt x="258" y="292" on="0"/>
        <pt x="147" y="358" on="0"/>
        <pt x="84" y="473" on="0"/>
        <pt x="84" y="546" on="1"/>
        <pt x="84" y="625" on="0"/>
        <pt x="157" y="747" on="0"/>
        <pt x="289" y="815" on="0"/>
        <pt x="375" y="815" on="1"/>
      </contour>
      <contour>
        <pt x="186" y="468" on="0"/>
        <pt x="291" y="372" on="0"/>
        <pt x="375" y="372" on="1"/>
        <pt x="459" y="372" on="0"/>
        <pt x="564" y="468" on="0"/>
        <pt x="564" y="546" on="1"/>
        <pt x="564" y="623" on="0"/>
        <pt x="459" y="719" on="0"/>
        <pt x="375" y="719" on="1"/>
        <pt x="291" y="719" on="0"/>
        <pt x="186" y="623" on="0"/>
        <pt x="186" y="546" on="1"/>
      </contour>
    </TTGlyph>
    <TTGlyph name="notequal" xMin="90" yMin="10" xMax="660" yMax="690">
      <contour>
        <pt x="90" y="534" on="1"/>
        <pt x="417" y="534" on="1"/>
        <pt x="490" y="690" on="1"/>
        <pt x="578" y="690" on="1"/>
        <pt x="505" y="534" on="1"/>
        <pt x="660" y="534" on="1"/>
        <pt x="660" y="446" on="1"/>
        <pt x="464" y="446" on="1"/>
        <pt x="374" y="254" on="1"/>
        <pt x="660" y="254" on="1"/>
        <pt x="660" y="166" on="1"/>
        <pt x="333" y="166" on="1"/>
        <pt x="260" y="10" on="1"/>
        <pt x="172" y="10" on="1"/>
        <pt x="245" y="166" on="1"/>
        <pt x="90" y="166" on="1"/>
        <pt x="90" y="254" on="1"/>
        <pt x="286" y="254" on="1"/>
        <pt x="376" y="446" on="1"/>
        <pt x="90" y="446" on="1"/>
      </contour>
    </TTGlyph>
    <TTGlyph name="notequal.case" xMin="90" yMin="60" xMax="660" yMax="740">
      <component glyphName="notequal" x="0" y="50" flags="0x4"/>
    </TTGlyph>
    <TTGlyph name="numbersign" xMin="50" yMin="0" xMax="700" yMax="800">
      <contour>
        <pt x="340" y="594" on="1"/>
        <pt x="487" y="594" on="1"/>
        <pt x="527" y="800" on="1"/>
        <pt x="607" y="800" on="1"/>
        <pt x="567" y="594" on="1"/>
        <pt x="700" y="594" on="1"/>
        <pt x="700" y="510" on="1"/>
        <pt x="550" y="510" on="1"/>
        <pt x="507" y="290" on="1"/>
        <pt x="646" y="290" on="1"/>
        <pt x="646" y="206" on="1"/>
        <pt x="490" y="206" on="1"/>
        <pt x="450" y="0" on="1"/>
        <pt x="370" y="0" on="1"/>
        <pt x="410" y="206" on="1"/>
        <pt x="263" y="206" on="1"/>
        <pt x="223" y="0" on="1"/>
        <pt x="143" y="0" on="1"/>
        <pt x="183" y="206" on="1"/>
        <pt x="50" y="206" on="1"/>
        <pt x="50" y="290" on="1"/>
        <pt x="200" y="290" on="1"/>
        <pt x="243" y="510" on="1"/>
        <pt x="104" y="510" on="1"/>
        <pt x="104" y="594" on="1"/>
        <pt x="260" y="594" on="1"/>
        <pt x="300" y="800" on="1"/>
        <pt x="380" y="800" on="1"/>
      </contour>
      <contour>
        <pt x="427" y="290" on="1"/>
        <pt x="470" y="510" on="1"/>
        <pt x="323" y="510" on="1"/>
        <pt x="280" y="290" on="1"/>
      </contour>
    </TTGlyph>
    <TTGlyph name="o" xMin="86" yMin="-15" xMax="664" yMax="613">
      <contour>
        <pt x="289" y="-15" on="0"/>
        <pt x="158" y="63" on="0"/>
        <pt x="86" y="206" on="0"/>
        <pt x="86" y="300" on="1"/>
        <pt x="86" y="394" on="0"/>
        <pt x="158" y="535" on="0"/>
        <pt x="289" y="613" on="0"/>
        <pt x="375" y="613" on="1"/>
        <pt x="461" y="613" on="0"/>
        <pt x="592" y="535" on="0"/>
        <pt x="664" y="394" on="0"/>
        <pt x="664" y="300" on="1"/>
        <pt x="664" y="206" on="0"/>
        <pt x="592" y="63" on="0"/>
        <pt x="461" y="-15" on="0"/>
        <pt x="375" y="-15" on="1"/>
      </contour>
      <contour>
        <pt x="182" y="196" on="0"/>
        <pt x="285" y="75" on="0"/>
        <pt x="375" y="75" on="1"/>
        <pt x="465" y="75" on="0"/>
        <pt x="568" y="196" on="0"/>
        <pt x="568" y="300" on="1"/>
        <pt x="568" y="404" on="0"/>
        <pt x="465" y="522" on="0"/>
        <pt x="375" y="522" on="1"/>
        <pt x="285" y="522" on="0"/>
        <pt x="182" y="404" on="0"/>
        <pt x="182" y="300" on="1"/>
      </contour>
    </TTGlyph>
    <TTGlyph name="one" xMin="116" yMin="0" xMax="694" yMax="800">
      <contour>
        <pt x="467" y="90" on="1"/>
        <pt x="694" y="90" on="1"/>
        <pt x="694" y="0" on="1"/>
        <pt x="116" y="0" on="1"/>
        <pt x="116" y="90" on="1"/>
        <pt x="367" y="90" on="1"/>
        <pt x="367" y="725" on="1"/>
        <pt x="116" y="556" on="1"/>
        <pt x="116" y="674" on="1"/>
        <pt x="314" y="800" on="1"/>
        <pt x="467" y="800" on="1"/>
      </contour>
    </TTGlyph>
    <TTGlyph name="p" xMin="118" yMin="-200" xMax="681" yMax="613">
      <contour>
        <pt x="498" y="613" on="0"/>
        <pt x="616" y="535" on="0"/>
        <pt x="681" y="393" on="0"/>
        <pt x="681" y="299" on="1"/>
        <pt x="681" y="205" on="0"/>
        <pt x="616" y="63" on="0"/>
        <pt x="498" y="-15" on="0"/>
        <pt x="420" y="-15" on="1"/>
        <pt x="351" y="-15" on="0"/>
        <pt x="258" y="41" on="0"/>
        <pt x="242" y="93" on="1"/>
        <pt x="214" y="93" on="1"/>
        <pt x="214" y="-200" on="1"/>
        <pt x="118" y="-200" on="1"/>
        <pt x="118" y="598" on="1"/>
        <pt x="214" y="598" on="1"/>
        <pt x="214" y="504" on="1"/>
        <pt x="242" y="504" on="1"/>
        <pt x="258" y="556" on="0"/>
        <pt x="351" y="613" on="0"/>
        <pt x="420" y="613" on="1"/>
      </contour>
      <contour>
        <pt x="209" y="194" on="0"/>
        <pt x="308" y="74" on="0"/>
        <pt x="396" y="74" on="1"/>
        <pt x="484" y="74" on="0"/>
        <pt x="583" y="194" on="0"/>
        <pt x="583" y="299" on="1"/>
        <pt x="583" y="404" on="0"/>
        <pt x="483" y="524" on="0"/>
        <pt x="396" y="524" on="1"/>
        <pt x="309" y="524" on="0"/>
        <pt x="209" y="404" on="0"/>
        <pt x="209" y="299" on="1"/>
      </contour>
    </TTGlyph>
    <TTGlyph name="parenleft" xMin="269" yMin="-146" xMax="585" yMax="906">
      <contour>
        <pt x="479" y="764" on="0"/>
        <pt x="365" y="538" on="0"/>
        <pt x="365" y="384" on="1"/>
        <pt x="365" y="227" on="0"/>
        <pt x="479" y="-4" on="0"/>
        <pt x="585" y="-60" on="1"/>
        <pt x="585" y="-146" on="1"/>
        <pt x="487" y="-105" on="0"/>
        <pt x="345" y="51" on="0"/>
        <pt x="269" y="261" on="0"/>
        <pt x="269" y="383" on="1"/>
        <pt x="269" y="504" on="0"/>
        <pt x="345" y="712" on="0"/>
        <pt x="487" y="865" on="0"/>
        <pt x="585" y="906" on="1"/>
        <pt x="585" y="820" on="1"/>
      </contour>
    </TTGlyph>
    <TTGlyph name="parenright" xMin="165" yMin="-146" xMax="481" yMax="906">
      <contour>
        <pt x="263" y="865" on="0"/>
        <pt x="405" y="712" on="0"/>
        <pt x="481" y="504" on="0"/>
        <pt x="481" y="383" on="1"/>
        <pt x="481" y="261" on="0"/>
        <pt x="405" y="51" on="0"/>
        <pt x="263" y="-105" on="0"/>
        <pt x="165" y="-146" on="1"/>
        <pt x="165" y="-60" on="1"/>
        <pt x="271" y="-4" on="0"/>
        <pt x="385" y="227" on="0"/>
        <pt x="385" y="384" on="1"/>
        <pt x="385" y="538" on="0"/>
        <pt x="271" y="764" on="0"/>
        <pt x="165" y="820" on="1"/>
        <pt x="165" y="906" on="1"/>
      </contour>
    </TTGlyph>
    <TTGlyph name="percent" xMin="54" yMin="-15" xMax="696" yMax="815">
      <contour>
        <pt x="54" y="219" on="1"/>
        <pt x="696" y="666" on="1"/>
        <pt x="696" y="581" on="1"/>
        <pt x="54" y="134" on="1"/>
      </contour>
      <contour>
        <pt x="66" y="720" on="0"/>
        <pt x="148" y="815" on="0"/>
        <pt x="223" y="815" on="1"/>
        <pt x="298" y="815" on="0"/>
        <pt x="380" y="720" on="0"/>
        <pt x="380" y="633" on="1"/>
        <pt x="380" y="545" on="0"/>
        <pt x="298" y="450" on="0"/>
        <pt x="223" y="450" on="1"/>
        <pt x="148" y="450" on="0"/>
        <pt x="66" y="545" on="0"/>
        <pt x="66" y="633" on="1"/>
      </contour>
      <contour>
        <pt x="152" y="585" on="0"/>
        <pt x="189" y="533" on="0"/>
        <pt x="223" y="533" on="1"/>
        <pt x="257" y="533" on="0"/>
        <pt x="294" y="585" on="0"/>
        <pt x="294" y="633" on="1"/>
        <pt x="294" y="680" on="0"/>
        <pt x="257" y="732" on="0"/>
        <pt x="223" y="732" on="1"/>
        <pt x="189" y="732" on="0"/>
        <pt x="152" y="680" on="0"/>
        <pt x="152" y="633" on="1"/>
      </contour>
      <contour>
        <pt x="370" y="255" on="0"/>
        <pt x="452" y="350" on="0"/>
        <pt x="527" y="350" on="1"/>
        <pt x="602" y="350" on="0"/>
        <pt x="684" y="255" on="0"/>
        <pt x="684" y="167" on="1"/>
        <pt x="684" y="80" on="0"/>
        <pt x="602" y="-15" on="0"/>
        <pt x="527" y="-15" on="1"/>
        <pt x="452" y="-15" on="0"/>
        <pt x="370" y="80" on="0"/>
        <pt x="370" y="167" on="1"/>
      </contour>
      <contour>
        <pt x="456" y="120" on="0"/>
        <pt x="493" y="68" on="0"/>
        <pt x="527" y="68" on="1"/>
        <pt x="561" y="68" on="0"/>
        <pt x="598" y="120" on="0"/>
        <pt x="598" y="167" on="1"/>
        <pt x="598" y="215" on="0"/>
        <pt x="561" y="267" on="0"/>
        <pt x="527" y="267" on="1"/>
        <pt x="493" y="267" on="0"/>
        <pt x="456" y="215" on="0"/>
        <pt x="456" y="167" on="1"/>
      </contour>
    </TTGlyph>
    <TTGlyph name="percent.cv01" xMin="66" yMin="-15" xMax="684" yMax="815">
      <contour>
        <pt x="450" y="-15" on="0"/>
        <pt x="370" y="90" on="0"/>
        <pt x="370" y="192" on="1"/>
        <pt x="370" y="295" on="0"/>
        <pt x="450" y="400" on="0"/>
        <pt x="527" y="400" on="1"/>
        <pt x="604" y="400" on="0"/>
        <pt x="684" y="295" on="0"/>
        <pt x="684" y="192" on="1"/>
        <pt x="684" y="90" on="0"/>
        <pt x="604" y="-15" on="0"/>
        <pt x="527" y="-15" on="1"/>
      </contour>
      <contour>
        <pt x="66" y="710" on="0"/>
        <pt x="146" y="815" on="0"/>
        <pt x="223" y="815" on="1"/>
        <pt x="300" y="815" on="0"/>
        <pt x="380" y="710" on="0"/>
        <pt x="380" y="608" on="1"/>
        <pt x="380" y="505" on="0"/>
        <pt x="300" y="400" on="0"/>
        <pt x="223" y="400" on="1"/>
        <pt x="146" y="400" on="0"/>
        <pt x="66" y="505" on="0"/>
        <pt x="66" y="608" on="1"/>
      </contour>
      <contour>
        <pt x="260" y="340" on="1"/>
        <pt x="336" y="340" on="1"/>
        <pt x="177" y="0" on="1"/>
        <pt x="96" y="0" on="1"/>
      </contour>
      <contour>
        <pt x="152" y="483" on="0"/>
        <pt x="223" y="483" on="1"/>
        <pt x="294" y="483" on="0"/>
        <pt x="294" y="608" on="1"/>
        <pt x="294" y="732" on="0"/>
        <pt x="223" y="732" on="1"/>
        <pt x="152" y="732" on="0"/>
        <pt x="152" y="608" on="1"/>
      </contour>
      <contour>
        <pt x="573" y="800" on="1"/>
        <pt x="654" y="800" on="1"/>
        <pt x="490" y="460" on="1"/>
        <pt x="414" y="460" on="1"/>
      </contour>
      <contour>
        <pt x="456" y="68" on="0"/>
        <pt x="527" y="68" on="1"/>
        <pt x="598" y="68" on="0"/>
        <pt x="598" y="192" on="1"/>
        <pt x="598" y="317" on="0"/>
        <pt x="527" y="317" on="1"/>
        <pt x="456" y="317" on="0"/>
        <pt x="456" y="192" on="1"/>
      </contour>
    </TTGlyph>
    <TTGlyph name="percent.cv02" xMin="66" yMin="-20" xMax="684" yMax="820">
      <contour>
        <pt x="452" y="-15" on="0"/>
        <pt x="370" y="80" on="0"/>
        <pt x="370" y="167" on="1"/>
        <pt x="370" y="255" on="0"/>
        <pt x="452" y="350" on="0"/>
        <pt x="527" y="350" on="1"/>
        <pt x="602" y="350" on="0"/>
        <pt x="684" y="255" on="0"/>
        <pt x="684" y="167" on="1"/>
        <pt x="684" y="80" on="0"/>
        <pt x="602" y="-15" on="0"/>
        <pt x="527" y="-15" on="1"/>
      </contour>
      <contour>
        <pt x="66" y="720" on="0"/>
        <pt x="148" y="815" on="0"/>
        <pt x="223" y="815" on="1"/>
        <pt x="298" y="815" on="0"/>
        <pt x="380" y="720" on="0"/>
        <pt x="380" y="633" on="1"/>
        <pt x="380" y="545" on="0"/>
        <pt x="298" y="450" on="0"/>
        <pt x="223" y="450" on="1"/>
        <pt x="148" y="450" on="0"/>
        <pt x="66" y="545" on="0"/>
        <pt x="66" y="633" on="1"/>
      </contour>
      <contour>
        <pt x="106" y="89" on="1"/>
        <pt x="644" y="820" on="1"/>
        <pt x="644" y="711" on="1"/>
        <pt x="106" y="-20" on="1"/>
      </contour>
      <contour>
        <pt x="152" y="585" on="0"/>
        <pt x="189" y="533" on="0"/>
        <pt x="223" y="533" on="1"/>
        <pt x="257" y="533" on="0"/>
        <pt x="294" y="585" on="0"/>
        <pt x="294" y="633" on="1"/>
        <pt x="294" y="680" on="0"/>
        <pt x="257" y="732" on="0"/>
        <pt x="223" y="732" on="1"/>
        <pt x="189" y="732" on="0"/>
        <pt x="152" y="680" on="0"/>
        <pt x="152" y="633" on="1"/>
      </contour>
      <contour>
        <pt x="456" y="120" on="0"/>
        <pt x="493" y="68" on="0"/>
        <pt x="527" y="68" on="1"/>
        <pt x="561" y="68" on="0"/>
        <pt x="598" y="120" on="0"/>
        <pt x="598" y="167" on="1"/>
        <pt x="598" y="215" on="0"/>
        <pt x="561" y="267" on="0"/>
        <pt x="527" y="267" on="1"/>
        <pt x="493" y="267" on="0"/>
        <pt x="456" y="215" on="0"/>
        <pt x="456" y="167" on="1"/>
      </contour>
    </TTGlyph>
    <TTGlyph name="period" xMin="286" yMin="-8" xMax="464" yMax="160">
      <contour>
        <pt x="332" y="-8" on="0"/>
        <pt x="286" y="36" on="0"/>
        <pt x="286" y="76" on="1"/>
        <pt x="286" y="116" on="0"/>
        <pt x="332" y="160" on="0"/>
        <pt x="375" y="160" on="1"/>
        <pt x="418" y="160" on="0"/>
        <pt x="464" y="116" on="0"/>
        <pt x="464" y="76" on="1"/>
        <pt x="464" y="36" on="0"/>
        <pt x="418" y="-8" on="0"/>
        <pt x="375" y="-8" on="1"/>
      </contour>
    </TTGlyph>
    <TTGlyph name="plus" xMin="96" yMin="71" xMax="654" yMax="629">
      <contour>
        <pt x="96" y="394" on="1"/>
        <pt x="331" y="394" on="1"/>
        <pt x="331" y="629" on="1"/>
        <pt x="419" y="629" on="1"/>
        <pt x="419" y="394" on="1"/>
        <pt x="654" y="394" on="1"/>
        <pt x="654" y="306" on="1"/>
        <pt x="419" y="306" on="1"/>
        <pt x="419" y="71" on="1"/>
        <pt x="331" y="71" on="1"/>
        <pt x="331" y="306" on="1"/>
        <pt x="96" y="306" on="1"/>
      </contour>
    </TTGlyph>
    <TTGlyph name="plus.case" xMin="96" yMin="121" xMax="654" yMax="679">
      <component glyphName="plus" x="0" y="50" flags="0x4"/>
    </TTGlyph>
    <TTGlyph name="q" xMin="69" yMin="-200" xMax="632" yMax="613">
      <contour>
        <pt x="399" y="613" on="0"/>
        <pt x="492" y="556" on="0"/>
        <pt x="508" y="504" on="1"/>
        <pt x="536" y="504" on="1"/>
        <pt x="536" y="598" on="1"/>
        <pt x="632" y="598" on="1"/>
        <pt x="632" y="-200" on="1"/>
        <pt x="536" y="-200" on="1"/>
        <pt x="536" y="93" on="1"/>
        <pt x="508" y="93" on="1"/>
        <pt x="492" y="41" on="0"/>
        <pt x="399" y="-15" on="0"/>
        <pt x="330" y="-15" on="1"/>
        <pt x="252" y="-15" on="0"/>
        <pt x="134" y="63" on="0"/>
        <pt x="69" y="205" on="0"/>
        <pt x="69" y="299" on="1"/>
        <pt x="69" y="393" on="0"/>
        <pt x="134" y="535" on="0"/>
        <pt x="252" y="613" on="0"/>
        <pt x="330" y="613" on="1"/>
      </contour>
      <contour>
        <pt x="167" y="194" on="0"/>
        <pt x="266" y="74" on="0"/>
        <pt x="354" y="74" on="1"/>
        <pt x="442" y="74" on="0"/>
        <pt x="541" y="194" on="0"/>
        <pt x="541" y="299" on="1"/>
        <pt x="541" y="404" on="0"/>
        <pt x="441" y="524" on="0"/>
        <pt x="354" y="524" on="1"/>
        <pt x="267" y="524" on="0"/>
        <pt x="167" y="404" on="0"/>
        <pt x="167" y="299" on="1"/>
      </contour>
    </TTGlyph>
    <TTGlyph name="question" xMin="77" yMin="-7" xMax="647" yMax="815">
      <contour>
        <pt x="299" y="278" on="0"/>
        <pt x="337" y="361" on="0"/>
        <pt x="392" y="412" on="0"/>
        <pt x="437" y="444" on="1"/>
        <pt x="473" y="469" on="0"/>
        <pt x="516" y="507" on="0"/>
        <pt x="545" y="561" on="0"/>
        <pt x="545" y="598" on="1"/>
        <pt x="545" y="654" on="0"/>
        <pt x="455" y="719" on="0"/>
        <pt x="376" y="719" on="1"/>
        <pt x="293" y="719" on="0"/>
        <pt x="194" y="644" on="0"/>
        <pt x="186" y="576" on="1"/>
        <pt x="77" y="576" on="1"/>
        <pt x="91" y="691" on="0"/>
        <pt x="247" y="815" on="0"/>
        <pt x="376" y="815" on="1"/>
        <pt x="502" y="815" on="0"/>
        <pt x="647" y="699" on="0"/>
        <pt x="647" y="598" on="1"/>
        <pt x="647" y="543" on="0"/>
        <pt x="608" y="463" on="0"/>
        <pt x="554" y="412" on="0"/>
        <pt x="509" y="378" on="1"/>
        <pt x="471" y="350" on="0"/>
        <pt x="427" y="310" on="0"/>
        <pt x="398" y="255" on="0"/>
        <pt x="398" y="218" on="1"/>
        <pt x="299" y="218" on="1"/>
      </contour>
      <contour>
        <pt x="268" y="98" on="0"/>
        <pt x="311" y="135" on="0"/>
        <pt x="351" y="135" on="1"/>
        <pt x="391" y="135" on="0"/>
        <pt x="433" y="98" on="0"/>
        <pt x="433" y="64" on="1"/>
        <pt x="433" y="30" on="0"/>
        <pt x="391" y="-7" on="0"/>
        <pt x="351" y="-7" on="1"/>
        <pt x="311" y="-7" on="0"/>
        <pt x="268" y="30" on="0"/>
        <pt x="268" y="64" on="1"/>
      </contour>
    </TTGlyph>
    <TTGlyph name="quotedbl" xMin="205" yMin="466" xMax="545" yMax="848">
      <component glyphName="quotesingle" x="-115" y="0" flags="0x0"/>
      <component glyphName="quotesingle" x="115" y="0" flags="0x0"/>
    </TTGlyph>
    <TTGlyph name="quotedblbase" xMin="128" yMin="-178" xMax="593" yMax="160">
      <component glyphName="comma" x="-145" y="0" flags="0x0"/>
      <component glyphName="comma" x="120" y="0" flags="0x0"/>
    </TTGlyph>
    <TTGlyph name="quotedblleft" xMin="157" yMin="498" xMax="622" yMax="836">
      <contour>
        <pt x="563" y="666" on="0"/>
        <pt x="609" y="622" on="0"/>
        <pt x="609" y="582" on="1"/>
        <pt x="609" y="542" on="0"/>
        <pt x="563" y="498" on="0"/>
        <pt x="520" y="498" on="1"/>
        <pt x="470" y="498" on="0"/>
        <pt x="422" y="553" on="0"/>
        <pt x="422" y="611" on="1"/>
        <pt x="422" y="681" on="0"/>
        <pt x="453" y="790" on="0"/>
        <pt x="485" y="836" on="1"/>
        <pt x="622" y="836" on="1"/>
        <pt x="565" y="795" on="0"/>
        <pt x="500" y="711" on="0"/>
        <pt x="490" y="663" on="1"/>
        <pt x="504" y="666" on="0"/>
        <pt x="520" y="666" on="1"/>
      </contour>
      <contour>
        <pt x="157" y="681" on="0"/>
        <pt x="188" y="790" on="0"/>
        <pt x="220" y="836" on="1"/>
        <pt x="357" y="836" on="1"/>
        <pt x="300" y="795" on="0"/>
        <pt x="235" y="711" on="0"/>
        <pt x="225" y="663" on="1"/>
        <pt x="239" y="666" on="0"/>
        <pt x="255" y="666" on="1"/>
        <pt x="298" y="666" on="0"/>
        <pt x="344" y="622" on="0"/>
        <pt x="344" y="582" on="1"/>
        <pt x="344" y="542" on="0"/>
        <pt x="298" y="498" on="0"/>
        <pt x="255" y="498" on="1"/>
        <pt x="205" y="498" on="0"/>
        <pt x="157" y="553" on="0"/>
        <pt x="157" y="611" on="1"/>
      </contour>
    </TTGlyph>
    <TTGlyph name="quotedblright" xMin="128" yMin="560" xMax="593" yMax="898">
      <component glyphName="quotedblbase" x="0" y="738" flags="0x4"/>
    </TTGlyph>
    <TTGlyph name="quoteleft" xMin="277" yMin="498" xMax="477" yMax="836">
      <contour>
        <pt x="418" y="666" on="0"/>
        <pt x="464" y="622" on="0"/>
        <pt x="464" y="582" on="1"/>
        <pt x="464" y="542" on="0"/>
        <pt x="418" y="498" on="0"/>
        <pt x="375" y="498" on="1"/>
        <pt x="325" y="498" on="0"/>
        <pt x="277" y="553" on="0"/>
        <pt x="277" y="611" on="1"/>
        <pt x="277" y="681" on="0"/>
        <pt x="308" y="790" on="0"/>
        <pt x="340" y="836" on="1"/>
        <pt x="477" y="836" on="1"/>
        <pt x="420" y="795" on="0"/>
        <pt x="355" y="711" on="0"/>
        <pt x="345" y="663" on="1"/>
        <pt x="359" y="666" on="0"/>
        <pt x="375" y="666" on="1"/>
      </contour>
    </TTGlyph>
    <TTGlyph name="quoteright" xMin="273" yMin="560" xMax="473" yMax="898">
      <component glyphName="comma" x="0" y="738" flags="0x4"/>
    </TTGlyph>
    <TTGlyph name="quotesinglbase" xMin="273" yMin="-178" xMax="473" yMax="160">
      <component glyphName="comma" x="0" y="0" flags="0x0"/>
    </TTGlyph>
    <TTGlyph name="quotesingle" xMin="320" yMin="466" xMax="430" yMax="848">
      <contour>
        <pt x="430" y="848" on="1"/>
        <pt x="412" y="466" on="1"/>
        <pt x="338" y="466" on="1"/>
        <pt x="320" y="848" on="1"/>
      </contour>
    </TTGlyph>
    <TTGlyph name="r" xMin="102" yMin="0" xMax="676" yMax="613">
      <contour>
        <pt x="349" y="598" on="1"/>
        <pt x="349" y="527" on="1"/>
        <pt x="377" y="527" on="1"/>
        <pt x="409" y="613" on="0"/>
        <pt x="513" y="613" on="1"/>
        <pt x="589" y="613" on="0"/>
        <pt x="676" y="511" on="0"/>
        <pt x="676" y="421" on="1"/>
        <pt x="676" y="340" on="1"/>
        <pt x="575" y="340" on="1"/>
        <pt x="575" y="406" on="1"/>
        <pt x="575" y="463" on="0"/>
        <pt x="524" y="522" on="0"/>
        <pt x="474" y="522" on="1"/>
        <pt x="349" y="522" on="0"/>
        <pt x="349" y="321" on="1"/>
        <pt x="349" y="90" on="1"/>
        <pt x="564" y="90" on="1"/>
        <pt x="564" y="0" on="1"/>
        <pt x="124" y="0" on="1"/>
        <pt x="124" y="90" on="1"/>
        <pt x="253" y="90" on="1"/>
        <pt x="253" y="507" on="1"/>
        <pt x="102" y="507" on="1"/>
        <pt x="102" y="598" on="1"/>
      </contour>
    </TTGlyph>
    <TTGlyph name="s" xMin="121" yMin="-15" xMax="645" yMax="613">
      <contour>
        <pt x="226" y="131" on="0"/>
        <pt x="311" y="75" on="0"/>
        <pt x="382" y="75" on="1"/>
        <pt x="453" y="75" on="0"/>
        <pt x="531" y="124" on="0"/>
        <pt x="531" y="169" on="1"/>
        <pt x="531" y="201" on="0"/>
        <pt x="473" y="238" on="0"/>
        <pt x="410" y="246" on="1"/>
        <pt x="324" y="258" on="1"/>
        <pt x="222" y="273" on="0"/>
        <pt x="125" y="355" on="0"/>
        <pt x="125" y="427" on="1"/>
        <pt x="125" y="515" on="0"/>
        <pt x="259" y="613" on="0"/>
        <pt x="380" y="613" on="1"/>
        <pt x="500" y="613" on="0"/>
        <pt x="639" y="501" on="0"/>
        <pt x="645" y="402" on="1"/>
        <pt x="549" y="402" on="1"/>
        <pt x="545" y="460" on="0"/>
        <pt x="456" y="522" on="0"/>
        <pt x="379" y="522" on="1"/>
        <pt x="304" y="522" on="0"/>
        <pt x="221" y="473" on="0"/>
        <pt x="221" y="428" on="1"/>
        <pt x="221" y="396" on="0"/>
        <pt x="278" y="360" on="0"/>
        <pt x="342" y="351" on="1"/>
        <pt x="428" y="339" on="1"/>
        <pt x="530" y="325" on="0"/>
        <pt x="627" y="243" on="0"/>
        <pt x="627" y="170" on="1"/>
        <pt x="627" y="83" on="0"/>
        <pt x="497" y="-15" on="0"/>
        <pt x="381" y="-15" on="1"/>
        <pt x="267" y="-15" on="0"/>
        <pt x="130" y="88" on="0"/>
        <pt x="121" y="182" on="1"/>
        <pt x="218" y="182" on="1"/>
      </contour>
    </TTGlyph>
    <TTGlyph name="section" xMin="134" yMin="-216" xMax="616" yMax="816">
      <contour>
        <pt x="498" y="658" on="0"/>
        <pt x="432" y="720" on="0"/>
        <pt x="380" y="720" on="1"/>
        <pt x="332" y="720" on="0"/>
        <pt x="275" y="669" on="0"/>
        <pt x="275" y="628" on="1"/>
        <pt x="275" y="581" on="0"/>
        <pt x="339" y="522" on="0"/>
        <pt x="400" y="514" on="1"/>
        <pt x="501" y="499" on="0"/>
        <pt x="616" y="389" on="0"/>
        <pt x="616" y="307" on="1"/>
        <pt x="616" y="239" on="0"/>
        <pt x="538" y="147" on="0"/>
        <pt x="466" y="129" on="1"/>
        <pt x="466" y="101" on="1"/>
        <pt x="520" y="87" on="0"/>
        <pt x="577" y="16" on="0"/>
        <pt x="577" y="-38" on="1"/>
        <pt x="577" y="-118" on="0"/>
        <pt x="463" y="-216" on="0"/>
        <pt x="370" y="-216" on="1"/>
        <pt x="274" y="-216" on="0"/>
        <pt x="154" y="-103" on="0"/>
        <pt x="144" y="-4" on="1"/>
        <pt x="247" y="-4" on="1"/>
        <pt x="252" y="-58" on="0"/>
        <pt x="318" y="-120" on="0"/>
        <pt x="370" y="-120" on="1"/>
        <pt x="418" y="-120" on="0"/>
        <pt x="475" y="-69" on="0"/>
        <pt x="475" y="-28" on="1"/>
        <pt x="475" y="19" on="0"/>
        <pt x="411" y="78" on="0"/>
        <pt x="350" y="86" on="1"/>
        <pt x="249" y="101" on="0"/>
        <pt x="134" y="211" on="0"/>
        <pt x="134" y="293" on="1"/>
        <pt x="134" y="361" on="0"/>
        <pt x="212" y="453" on="0"/>
        <pt x="284" y="471" on="1"/>
        <pt x="284" y="499" on="1"/>
        <pt x="230" y="513" on="0"/>
        <pt x="173" y="584" on="0"/>
        <pt x="173" y="638" on="1"/>
        <pt x="173" y="718" on="0"/>
        <pt x="287" y="816" on="0"/>
        <pt x="380" y="816" on="1"/>
        <pt x="476" y="816" on="0"/>
        <pt x="596" y="703" on="0"/>
        <pt x="606" y="604" on="1"/>
        <pt x="503" y="604" on="1"/>
      </contour>
      <contour>
        <pt x="235" y="248" on="0"/>
        <pt x="310" y="188" on="0"/>
        <pt x="375" y="188" on="1"/>
        <pt x="440" y="188" on="0"/>
        <pt x="515" y="248" on="0"/>
        <pt x="515" y="300" on="1"/>
        <pt x="515" y="352" on="0"/>
        <pt x="440" y="412" on="0"/>
        <pt x="375" y="412" on="1"/>
        <pt x="310" y="412" on="0"/>
        <pt x="235" y="352" on="0"/>
        <pt x="235" y="300" on="1"/>
      </contour>
    </TTGlyph>
    <TTGlyph name="semicolon" xMin="273" yMin="-178" xMax="473" yMax="605">
      <component glyphName="period" x="0" y="445" flags="0x4"/>
      <component glyphName="comma" x="0" y="0" flags="0x0"/>
    </TTGlyph>
    <TTGlyph name="seven" xMin="96" yMin="0" xMax="638" yMax="800">
      <contour>
        <pt x="317" y="0" on="1"/>
        <pt x="206" y="0" on="1"/>
        <pt x="568" y="704" on="1"/>
        <pt x="96" y="704" on="1"/>
        <pt x="96" y="800" on="1"/>
        <pt x="638" y="800" on="1"/>
        <pt x="638" y="634" on="1"/>
      </contour>
    </TTGlyph>
    <TTGlyph name="six" xMin="84" yMin="-15" xMax="666" yMax="800">
      <contour>
        <pt x="289" y="-15" on="0"/>
        <pt x="157" y="53" on="0"/>
        <pt x="84" y="175" on="0"/>
        <pt x="84" y="254" on="1"/>
        <pt x="84" y="321" on="0"/>
        <pt x="129" y="442" on="0"/>
        <pt x="177" y="506" on="1"/>
        <pt x="397" y="800" on="1"/>
        <pt x="520" y="800" on="1"/>
        <pt x="285" y="490" on="1"/>
        <pt x="306" y="473" on="1"/>
        <pt x="322" y="489" on="0"/>
        <pt x="385" y="508" on="0"/>
        <pt x="422" y="508" on="1"/>
        <pt x="492" y="508" on="0"/>
        <pt x="603" y="442" on="0"/>
        <pt x="666" y="327" on="0"/>
        <pt x="666" y="254" on="1"/>
        <pt x="666" y="175" on="0"/>
        <pt x="593" y="53" on="0"/>
        <pt x="461" y="-15" on="0"/>
        <pt x="375" y="-15" on="1"/>
      </contour>
      <contour>
        <pt x="186" y="177" on="0"/>
        <pt x="291" y="81" on="0"/>
        <pt x="375" y="81" on="1"/>
        <pt x="459" y="81" on="0"/>
        <pt x="564" y="177" on="0"/>
        <pt x="564" y="254" on="1"/>
        <pt x="564" y="332" on="0"/>
        <pt x="459" y="428" on="0"/>
        <pt x="375" y="428" on="1"/>
        <pt x="291" y="428" on="0"/>
        <pt x="186" y="332" on="0"/>
        <pt x="186" y="254" on="1"/>
      </contour>
    </TTGlyph>
    <TTGlyph name="slash" xMin="138" yMin="-170" xMax="612" yMax="848">
      <contour>
        <pt x="234" y="-170" on="1"/>
        <pt x="138" y="-170" on="1"/>
        <pt x="516" y="848" on="1"/>
        <pt x="612" y="848" on="1"/>
      </contour>
    </TTGlyph>
    <TTGlyph name="sterling" xMin="106" yMin="0" xMax="662" yMax="815">
      <contour>
        <pt x="167" y="186" on="0"/>
        <pt x="227" y="252" on="0"/>
        <pt x="227" y="302" on="1"/>
        <pt x="227" y="325" on="0"/>
        <pt x="221" y="346" on="1"/>
        <pt x="106" y="346" on="1"/>
        <pt x="106" y="430" on="1"/>
        <pt x="188" y="430" on="1"/>
        <pt x="173" y="465" on="0"/>
        <pt x="157" y="534" on="0"/>
        <pt x="157" y="576" on="1"/>
        <pt x="157" y="687" on="0"/>
        <pt x="290" y="815" on="0"/>
        <pt x="405" y="815" on="1"/>
        <pt x="520" y="815" on="0"/>
        <pt x="653" y="677" on="0"/>
        <pt x="662" y="548" on="1"/>
        <pt x="560" y="548" on="1"/>
        <pt x="552" y="631" on="0"/>
        <pt x="472" y="719" on="0"/>
        <pt x="405" y="719" on="1"/>
        <pt x="337" y="719" on="0"/>
        <pt x="259" y="643" on="0"/>
        <pt x="259" y="576" on="1"/>
        <pt x="259" y="540" on="0"/>
        <pt x="277" y="477" on="0"/>
        <pt x="296" y="430" on="1"/>
        <pt x="512" y="430" on="1"/>
        <pt x="512" y="346" on="1"/>
        <pt x="324" y="346" on="1"/>
        <pt x="329" y="323" on="0"/>
        <pt x="329" y="302" on="1"/>
        <pt x="329" y="223" on="0"/>
        <pt x="238" y="122" on="0"/>
        <pt x="143" y="96" on="1"/>
        <pt x="644" y="96" on="1"/>
        <pt x="644" y="0" on="1"/>
        <pt x="106" y="0" on="1"/>
        <pt x="106" y="170" on="1"/>
      </contour>
    </TTGlyph>
    <TTGlyph name="t" xMin="85" yMin="-15" xMax="651" yMax="750">
      <contour>
        <pt x="332" y="598" on="1"/>
        <pt x="630" y="598" on="1"/>
        <pt x="630" y="507" on="1"/>
        <pt x="332" y="507" on="1"/>
        <pt x="332" y="196" on="1"/>
        <pt x="332" y="75" on="0"/>
        <pt x="440" y="75" on="1"/>
        <pt x="545" y="75" on="0"/>
        <pt x="559" y="206" on="1"/>
        <pt x="651" y="206" on="1"/>
        <pt x="641" y="99" on="0"/>
        <pt x="530" y="-15" on="0"/>
        <pt x="436" y="-15" on="1"/>
        <pt x="339" y="-15" on="0"/>
        <pt x="236" y="94" on="0"/>
        <pt x="236" y="196" on="1"/>
        <pt x="236" y="507" on="1"/>
        <pt x="85" y="507" on="1"/>
        <pt x="85" y="598" on="1"/>
        <pt x="236" y="598" on="1"/>
        <pt x="236" y="750" on="1"/>
        <pt x="332" y="750" on="1"/>
      </contour>
    </TTGlyph>
    <TTGlyph name="three" xMin="85" yMin="-15" xMax="658" yMax="815">
      <contour>
        <pt x="654" y="106" on="0"/>
        <pt x="508" y="-15" on="0"/>
        <pt x="380" y="-15" on="1"/>
        <pt x="253" y="-15" on="0"/>
        <pt x="102" y="115" on="0"/>
        <pt x="90" y="234" on="1"/>
        <pt x="196" y="234" on="1"/>
        <pt x="205" y="161" on="0"/>
        <pt x="301" y="81" on="0"/>
        <pt x="380" y="81" on="1"/>
        <pt x="460" y="81" on="0"/>
        <pt x="552" y="154" on="0"/>
        <pt x="552" y="217" on="1"/>
        <pt x="552" y="281" on="0"/>
        <pt x="468" y="354" on="0"/>
        <pt x="395" y="354" on="1"/>
        <pt x="298" y="354" on="1"/>
        <pt x="298" y="448" on="1"/>
        <pt x="395" y="448" on="1"/>
        <pt x="470" y="448" on="0"/>
        <pt x="556" y="519" on="0"/>
        <pt x="556" y="581" on="1"/>
        <pt x="556" y="645" on="0"/>
        <pt x="466" y="719" on="0"/>
        <pt x="387" y="719" on="1"/>
        <pt x="304" y="719" on="0"/>
        <pt x="202" y="634" on="0"/>
        <pt x="192" y="556" on="1"/>
        <pt x="85" y="556" on="1"/>
        <pt x="99" y="681" on="0"/>
        <pt x="255" y="815" on="0"/>
        <pt x="387" y="815" on="1"/>
        <pt x="513" y="815" on="0"/>
        <pt x="658" y="692" on="0"/>
        <pt x="658" y="586" on="1"/>
        <pt x="658" y="515" on="0"/>
        <pt x="580" y="423" on="0"/>
        <pt x="513" y="415" on="1"/>
        <pt x="513" y="387" on="1"/>
        <pt x="578" y="377" on="0"/>
        <pt x="654" y="284" on="0"/>
        <pt x="654" y="212" on="1"/>
      </contour>
    </TTGlyph>
    <TTGlyph name="two" xMin="100" yMin="0" xMax="656" yMax="815">
      <contour>
        <pt x="490" y="410" on="0"/>
        <pt x="555" y="505" on="0"/>
        <pt x="555" y="560" on="1"/>
        <pt x="555" y="634" on="0"/>
        <pt x="467" y="719" on="0"/>
        <pt x="391" y="719" on="1"/>
        <pt x="314" y="719" on="0"/>
        <pt x="219" y="634" on="0"/>
        <pt x="208" y="556" on="1"/>
        <pt x="100" y="556" on="1"/>
        <pt x="114" y="681" on="0"/>
        <pt x="264" y="815" on="0"/>
        <pt x="391" y="815" on="1"/>
        <pt x="515" y="815" on="0"/>
        <pt x="656" y="679" on="0"/>
        <pt x="656" y="560" on="1"/>
        <pt x="656" y="479" on="0"/>
        <pt x="571" y="347" on="0"/>
        <pt x="481" y="288" on="1"/>
        <pt x="187" y="96" on="1"/>
        <pt x="640" y="96" on="1"/>
        <pt x="640" y="0" on="1"/>
        <pt x="122" y="0" on="1"/>
        <pt x="122" y="162" on="1"/>
        <pt x="421" y="363" on="1"/>
      </contour>
    </TTGlyph>
    <TTGlyph name="u" xMin="113" yMin="-15" xMax="624" yMax="598">
      <contour>
        <pt x="528" y="0" on="1"/>
        <pt x="528" y="87" on="1"/>
        <pt x="500" y="87" on="1"/>
        <pt x="483" y="38" on="0"/>
        <pt x="398" y="-15" on="0"/>
        <pt x="335" y="-15" on="1"/>
        <pt x="269" y="-15" on="0"/>
        <pt x="168" y="44" on="0"/>
        <pt x="113" y="153" on="0"/>
        <pt x="113" y="225" on="1"/>
        <pt x="113" y="598" on="1"/>
        <pt x="209" y="598" on="1"/>
        <pt x="209" y="250" on="1"/>
        <pt x="209" y="167" on="0"/>
        <pt x="293" y="76" on="0"/>
        <pt x="369" y="76" on="1"/>
        <pt x="445" y="76" on="0"/>
        <pt x="528" y="167" on="0"/>
        <pt x="528" y="250" on="1"/>
        <pt x="528" y="598" on="1"/>
        <pt x="624" y="598" on="1"/>
        <pt x="624" y="0" on="1"/>
      </contour>
    </TTGlyph>
    <TTGlyph name="underscore" xMin="90" yMin="-121" xMax="660" yMax="-50">
      <contour>
        <pt x="660" y="-50" on="1"/>
        <pt x="660" y="-121" on="1"/>
        <pt x="90" y="-121" on="1"/>
        <pt x="90" y="-50" on="1"/>
      </contour>
    </TTGlyph>
    <TTGlyph name="uni0237" xMin="114" yMin="-215" xMax="528" yMax="598">
      <contour>
        <pt x="528" y="598" on="1"/>
        <pt x="528" y="-16" on="1"/>
        <pt x="528" y="-111" on="0"/>
        <pt x="422" y="-215" on="0"/>
        <pt x="323" y="-215" on="1"/>
        <pt x="231" y="-215" on="0"/>
        <pt x="122" y="-127" on="0"/>
        <pt x="114" y="-46" on="1"/>
        <pt x="208" y="-46" on="1"/>
        <pt x="215" y="-86" on="0"/>
        <pt x="273" y="-128" on="0"/>
        <pt x="323" y="-128" on="1"/>
        <pt x="376" y="-128" on="0"/>
        <pt x="432" y="-71" on="0"/>
        <pt x="432" y="-16" on="1"/>
        <pt x="432" y="507" on="1"/>
        <pt x="148" y="507" on="1"/>
        <pt x="148" y="598" on="1"/>
      </contour>
    </TTGlyph>
    <TTGlyph name="uni0306.cy" xMin="-4" yMin="880" xMax="348" yMax="1024">
      <contour>
        <pt x="90" y="948" on="0"/>
        <pt x="172" y="948" on="1"/>
        <pt x="254" y="948" on="0"/>
        <pt x="260" y="1024" on="1"/>
        <pt x="348" y="1024" on="1"/>
        <pt x="342" y="957" on="0"/>
        <pt x="249" y="880" on="0"/>
        <pt x="172" y="880" on="1"/>
        <pt x="96" y="880" on="0"/>
        <pt x="2" y="957" on="0"/>
        <pt x="-4" y="1024" on="1"/>
        <pt x="84" y="1024" on="1"/>
      </contour>
    </TTGlyph>
    <TTGlyph name="uni0307" xMin="10" yMin="692" xMax="158" yMax="845">
      <contour>
        <pt x="51" y="692" on="0"/>
        <pt x="10" y="733" on="0"/>
        <pt x="10" y="768" on="1"/>
        <pt x="10" y="804" on="0"/>
        <pt x="51" y="845" on="0"/>
        <pt x="84" y="845" on="1"/>
        <pt x="117" y="845" on="0"/>
        <pt x="158" y="804" on="0"/>
        <pt x="158" y="768" on="1"/>
        <pt x="158" y="733" on="0"/>
        <pt x="117" y="692" on="0"/>
        <pt x="84" y="692" on="1"/>
      </contour>
    </TTGlyph>
    <TTGlyph name="uni0308" xMin="-146" yMin="878" xMax="246" yMax="993">
      <contour>
        <pt x="-110" y="878" on="0"/>
        <pt x="-146" y="908" on="0"/>
        <pt x="-146" y="935" on="1"/>
        <pt x="-146" y="962" on="0"/>
        <pt x="-110" y="993" on="0"/>
        <pt x="-79" y="993" on="1"/>
        <pt x="-48" y="993" on="0"/>
        <pt x="-13" y="962" on="0"/>
        <pt x="-13" y="935" on="1"/>
        <pt x="-13" y="908" on="0"/>
        <pt x="-48" y="878" on="0"/>
        <pt x="-79" y="878" on="1"/>
      </contour>
      <contour>
        <pt x="113" y="962" on="0"/>
        <pt x="148" y="993" on="0"/>
        <pt x="179" y="993" on="1"/>
        <pt x="210" y="993" on="0"/>
        <pt x="246" y="962" on="0"/>
        <pt x="246" y="935" on="1"/>
        <pt x="246" y="908" on="0"/>
        <pt x="210" y="878" on="0"/>
        <pt x="179" y="878" on="1"/>
        <pt x="148" y="878" on="0"/>
        <pt x="113" y="908" on="0"/>
        <pt x="113" y="935" on="1"/>
      </contour>
    </TTGlyph>
    <TTGlyph name="uni043D" xMin="126" yMin="0" xMax="624" yMax="598">
      <contour>
        <pt x="222" y="598" on="1"/>
        <pt x="222" y="340" on="1"/>
        <pt x="528" y="340" on="1"/>
        <pt x="528" y="598" on="1"/>
        <pt x="624" y="598" on="1"/>
        <pt x="624" y="0" on="1"/>
        <pt x="528" y="0" on="1"/>
        <pt x="528" y="250" on="1"/>
        <pt x="222" y="250" on="1"/>
        <pt x="222" y="0" on="1"/>
        <pt x="126" y="0" on="1"/>
        <pt x="126" y="598" on="1"/>
      </contour>
    </TTGlyph>
    <TTGlyph name="uni043E" xMin="86" yMin="-15" xMax="664" yMax="613">
      <component glyphName="o" x="0" y="0" flags="0x0"/>
    </TTGlyph>
    <TTGlyph name="uni20BD" xMin="54" yMin="0" xMax="698" yMax="800">
      <contour>
        <pt x="560" y="800" on="0"/>
        <pt x="698" y="674" on="0"/>
        <pt x="698" y="564" on="1"/>
        <pt x="698" y="453" on="0"/>
        <pt x="560" y="327" on="0"/>
        <pt x="439" y="327" on="1"/>
        <pt x="266" y="327" on="1"/>
        <pt x="266" y="237" on="1"/>
        <pt x="476" y="237" on="1"/>
        <pt x="476" y="156" on="1"/>
        <pt x="266" y="156" on="1"/>
        <pt x="266" y="0" on="1"/>
        <pt x="169" y="0" on="1"/>
        <pt x="169" y="156" on="1"/>
        <pt x="54" y="156" on="1"/>
        <pt x="54" y="237" on="1"/>
        <pt x="169" y="237" on="1"/>
        <pt x="169" y="327" on="1"/>
        <pt x="54" y="327" on="1"/>
        <pt x="54" y="408" on="1"/>
        <pt x="169" y="408" on="1"/>
        <pt x="169" y="800" on="1"/>
        <pt x="439" y="800" on="1"/>
      </contour>
      <contour>
        <pt x="443" y="416" on="1"/>
        <pt x="515" y="416" on="0"/>
        <pt x="596" y="492" on="0"/>
        <pt x="596" y="560" on="1"/>
        <pt x="596" y="628" on="0"/>
        <pt x="515" y="704" on="0"/>
        <pt x="443" y="704" on="1"/>
        <pt x="266" y="704" on="1"/>
        <pt x="266" y="416" on="1"/>
      </contour>
    </TTGlyph>
    <TTGlyph name="v" xMin="76" yMin="0" xMax="674" yMax="598">
      <contour>
        <pt x="177" y="598" on="1"/>
        <pt x="378" y="37" on="1"/>
        <pt x="578" y="598" on="1"/>
        <pt x="674" y="598" on="1"/>
        <pt x="455" y="0" on="1"/>
        <pt x="294" y="0" on="1"/>
        <pt x="76" y="598" on="1"/>
      </contour>
    </TTGlyph>
    <TTGlyph name="w" xMin="38" yMin="0" xMax="712" yMax="598">
      <contour>
        <pt x="139" y="598" on="1"/>
        <pt x="229" y="53" on="1"/>
        <pt x="305" y="598" on="1"/>
        <pt x="452" y="598" on="1"/>
        <pt x="524" y="57" on="1"/>
        <pt x="614" y="598" on="1"/>
        <pt x="712" y="598" on="1"/>
        <pt x="590" y="0" on="1"/>
        <pt x="452" y="0" on="1"/>
        <pt x="375" y="555" on="1"/>
        <pt x="298" y="0" on="1"/>
        <pt x="160" y="0" on="1"/>
        <pt x="38" y="598" on="1"/>
      </contour>
    </TTGlyph>
    <TTGlyph name="x" xMin="84" yMin="0" xMax="666" yMax="598">
      <contour>
        <pt x="294" y="286" on="1"/>
        <pt x="84" y="598" on="1"/>
        <pt x="196" y="598" on="1"/>
        <pt x="375" y="326" on="1"/>
        <pt x="561" y="598" on="1"/>
        <pt x="666" y="598" on="1"/>
        <pt x="454" y="294" on="1"/>
        <pt x="654" y="0" on="1"/>
        <pt x="542" y="0" on="1"/>
        <pt x="374" y="254" on="1"/>
        <pt x="201" y="0" on="1"/>
        <pt x="96" y="0" on="1"/>
      </contour>
    </TTGlyph>
    <TTGlyph name="y" xMin="69" yMin="-215" xMax="685" yMax="598">
      <contour>
        <pt x="180" y="598" on="1"/>
        <pt x="398" y="73" on="1"/>
        <pt x="580" y="598" on="1"/>
        <pt x="685" y="598" on="1"/>
        <pt x="444" y="-74" on="1"/>
        <pt x="395" y="-215" on="0"/>
        <pt x="283" y="-215" on="1"/>
        <pt x="211" y="-215" on="0"/>
        <pt x="124" y="-135" on="0"/>
        <pt x="113" y="-59" on="1"/>
        <pt x="207" y="-59" on="1"/>
        <pt x="216" y="-93" on="0"/>
        <pt x="251" y="-126" on="0"/>
        <pt x="280" y="-126" on="1"/>
        <pt x="329" y="-126" on="0"/>
        <pt x="356" y="-47" on="1"/>
        <pt x="390" y="50" on="1"/>
        <pt x="306" y="50" on="1"/>
        <pt x="69" y="598" on="1"/>
      </contour>
    </TTGlyph>
    <TTGlyph name="yen" xMin="51" yMin="0" xMax="699" yMax="800">
      <contour>
        <pt x="376" y="446" on="1"/>
        <pt x="586" y="800" on="1"/>
        <pt x="699" y="800" on="1"/>
        <pt x="447" y="386" on="1"/>
        <pt x="623" y="386" on="1"/>
        <pt x="623" y="305" on="1"/>
        <pt x="425" y="305" on="1"/>
        <pt x="425" y="215" on="1"/>
        <pt x="623" y="215" on="1"/>
        <pt x="623" y="134" on="1"/>
        <pt x="425" y="134" on="1"/>
        <pt x="425" y="0" on="1"/>
        <pt x="325" y="0" on="1"/>
        <pt x="325" y="134" on="1"/>
        <pt x="127" y="134" on="1"/>
        <pt x="127" y="215" on="1"/>
        <pt x="325" y="215" on="1"/>
        <pt x="325" y="305" on="1"/>
        <pt x="127" y="305" on="1"/>
        <pt x="127" y="386" on="1"/>
        <pt x="303" y="386" on="1"/>
        <pt x="51" y="800" on="1"/>
        <pt x="166" y="800" on="1"/>
      </contour>
    </TTGlyph>
    <TTGlyph name="z" xMin="136" yMin="0" xMax="614" yMax="598">
      <contour>
        <pt x="614" y="598" on="1"/>
        <pt x="614" y="428" on="1"/>
        <pt x="179" y="90" on="1"/>
        <pt x="614" y="90" on="1"/>
        <pt x="614" y="0" on="1"/>
        <pt x="136" y="0" on="1"/>
        <pt x="136" y="170" on="1"/>
        <pt x="570" y="507" on="1"/>
        <pt x="136" y="507" on="1"/>
        <pt x="136" y="598" on="1"/>
      </contour>
    </TTGlyph>
    <TTGlyph name="zero" xMin="66" yMin="-15" xMax="684" yMax="815">
      <contour>
        <pt x="222" y="-15" on="0"/>
        <pt x="66" y="195" on="0"/>
        <pt x="66" y="400" on="1"/>
        <pt x="66" y="605" on="0"/>
        <pt x="222" y="815" on="0"/>
        <pt x="375" y="815" on="1"/>
        <pt x="528" y="815" on="0"/>
        <pt x="684" y="605" on="0"/>
        <pt x="684" y="400" on="1"/>
        <pt x="684" y="195" on="0"/>
        <pt x="528" y="-15" on="0"/>
        <pt x="375" y="-15" on="1"/>
      </contour>
      <contour>
        <pt x="166" y="350" on="0"/>
        <pt x="170" y="315" on="1"/>
        <pt x="561" y="580" on="1"/>
        <pt x="539" y="651" on="0"/>
        <pt x="446" y="721" on="0"/>
        <pt x="375" y="721" on="1"/>
        <pt x="269" y="721" on="0"/>
        <pt x="166" y="563" on="0"/>
        <pt x="166" y="400" on="1"/>
      </contour>
      <contour>
        <pt x="211" y="149" on="0"/>
        <pt x="304" y="79" on="0"/>
        <pt x="375" y="79" on="1"/>
        <pt x="481" y="79" on="0"/>
        <pt x="584" y="237" on="0"/>
        <pt x="584" y="400" on="1"/>
        <pt x="584" y="450" on="0"/>
        <pt x="580" y="485" on="1"/>
        <pt x="189" y="220" on="1"/>
      </contour>
    </TTGlyph>
</ttFont>
